<svg width="133" height="23" viewBox="0 0 133 23" fill="none" xmlns="http://www.w3.org/2000/svg">
<path d="M17.49 22C16.984 22 16.049 21.054 14.685 19.162C13.321 17.27 11.671 14.619 9.735 11.209L12.771 10.252C14.597 13.134 16.115 15.378 17.325 16.984C18.557 18.59 19.646 19.767 20.592 20.515C21.538 21.241 22.462 21.604 23.364 21.604C23.408 21.604 23.43 21.67 23.43 21.802C23.43 21.934 23.408 22 23.364 22H17.49ZM9.966 1.276C11.99 1.276 13.552 1.65 14.652 2.398C15.774 3.124 16.335 4.147 16.335 5.467C16.335 6.545 15.994 7.568 15.312 8.536C14.63 9.482 13.739 10.252 12.639 10.846C11.539 11.418 10.406 11.704 9.24 11.704C8.382 11.704 7.777 11.693 7.425 11.671V19.327C7.425 20.009 7.48 20.504 7.59 20.812C7.7 21.12 7.909 21.329 8.217 21.439C8.547 21.549 9.064 21.604 9.768 21.604C9.812 21.604 9.834 21.67 9.834 21.802C9.834 21.934 9.812 22 9.768 22C9.042 22 8.47 21.989 8.052 21.967L5.544 21.934L3.135 21.967C2.695 21.989 2.101 22 1.353 22C1.287 22 1.254 21.934 1.254 21.802C1.254 21.67 1.287 21.604 1.353 21.604C2.057 21.604 2.563 21.549 2.871 21.439C3.201 21.329 3.421 21.12 3.531 20.812C3.663 20.482 3.729 19.987 3.729 19.327V4.048C3.729 3.388 3.674 2.904 3.564 2.596C3.454 2.288 3.234 2.079 2.904 1.969C2.574 1.837 2.068 1.771 1.386 1.771C1.342 1.771 1.32 1.705 1.32 1.573C1.32 1.441 1.342 1.375 1.386 1.375L3.135 1.408C4.147 1.452 4.95 1.474 5.544 1.474C6.204 1.474 6.908 1.441 7.656 1.375C7.898 1.353 8.206 1.331 8.58 1.309C8.976 1.287 9.438 1.276 9.966 1.276ZM12.54 6.721C12.54 4.917 12.276 3.674 11.748 2.992C11.22 2.31 10.461 1.969 9.471 1.969C8.723 1.969 8.195 2.134 7.887 2.464C7.579 2.794 7.425 3.344 7.425 4.114V10.714C7.953 10.802 8.591 10.846 9.339 10.846C10.131 10.846 10.758 10.725 11.22 10.483C11.682 10.241 12.012 9.823 12.21 9.229C12.43 8.635 12.54 7.799 12.54 6.721ZM30.8908 22.396C29.1748 22.396 27.7118 22.033 26.5018 21.307C25.3138 20.559 24.4118 19.591 23.7958 18.403C23.1798 17.215 22.8718 15.928 22.8718 14.542C22.8718 13.024 23.2458 11.638 23.9938 10.384C24.7418 9.108 25.7538 8.107 27.0298 7.381C28.3058 6.633 29.6918 6.259 31.1878 6.259C32.8158 6.259 34.0588 6.688 34.9168 7.546C35.7748 8.404 36.2038 9.526 36.2038 10.912C36.2038 11.198 36.1708 11.396 36.1048 11.506C36.0608 11.616 35.9618 11.671 35.8078 11.671H32.6398C32.7278 10.175 32.5518 9.031 32.1118 8.239C31.6938 7.447 31.0118 7.051 30.0658 7.051C28.9218 7.051 28.0198 7.601 27.3598 8.701C26.6998 9.801 26.3698 11.275 26.3698 13.123C26.3698 15.565 26.9088 17.512 27.9868 18.964C29.0648 20.416 30.5828 21.142 32.5408 21.142C33.0908 21.142 33.6518 21.065 34.2238 20.911C34.7958 20.757 35.3018 20.526 35.7418 20.218H35.7748C35.8408 20.218 35.8958 20.262 35.9398 20.35C36.0058 20.416 36.0168 20.482 35.9728 20.548C34.4328 21.78 32.7388 22.396 30.8908 22.396ZM24.6538 11.077L34.1908 10.912V11.671L24.6868 11.704L24.6538 11.077ZM46.009 22.132C45.415 22.132 44.733 22.099 43.963 22.033C43.699 22.011 43.369 21.989 42.973 21.967C42.577 21.945 42.126 21.934 41.62 21.934L39.475 21.967C39.079 21.989 38.529 22 37.825 22C37.781 22 37.759 21.934 37.759 21.802C37.759 21.67 37.781 21.604 37.825 21.604C38.485 21.604 38.958 21.549 39.244 21.439C39.552 21.329 39.75 21.12 39.838 20.812C39.948 20.482 40.003 19.987 40.003 19.327V9.229C40.003 8.569 39.948 8.085 39.838 7.777C39.75 7.469 39.552 7.26 39.244 7.15C38.958 7.018 38.507 6.952 37.891 6.952C37.825 6.952 37.792 6.886 37.792 6.754C37.792 6.622 37.825 6.556 37.891 6.556L39.475 6.589C40.355 6.633 41.07 6.655 41.62 6.655C42.302 6.655 42.984 6.622 43.666 6.556C44.546 6.512 45.206 6.49 45.646 6.49C47.494 6.49 49.089 6.82 50.431 7.48C51.773 8.14 52.796 9.053 53.5 10.219C54.204 11.385 54.556 12.705 54.556 14.179C54.556 15.697 54.193 17.061 53.467 18.271C52.741 19.481 51.729 20.427 50.431 21.109C49.133 21.791 47.659 22.132 46.009 22.132ZM45.646 21.406C47.252 21.406 48.506 20.812 49.408 19.624C50.31 18.436 50.761 16.742 50.761 14.542C50.761 12.408 50.31 10.648 49.408 9.262C48.506 7.854 47.153 7.15 45.349 7.15C44.601 7.15 44.062 7.304 43.732 7.612C43.424 7.92 43.27 8.481 43.27 9.295V18.964C43.27 19.866 43.424 20.504 43.732 20.878C44.062 21.23 44.7 21.406 45.646 21.406ZM67.3726 21.967C67.3506 22.055 67.2296 22.099 67.0096 22.099C66.7896 22.099 66.6686 22.055 66.6466 21.967L58.2316 4.114C57.9016 3.41 57.6266 2.904 57.4066 2.596C57.2086 2.288 56.9776 2.079 56.7136 1.969C56.4716 1.837 56.1416 1.771 55.7236 1.771C55.6576 1.771 55.6246 1.705 55.6246 1.573C55.6246 1.441 55.6576 1.375 55.7236 1.375C56.0536 1.375 56.2846 1.386 56.4166 1.408C56.8566 1.452 57.4286 1.474 58.1326 1.474C59.6066 1.474 60.8496 1.452 61.8616 1.408C62.1476 1.386 62.4996 1.375 62.9176 1.375C62.9836 1.375 63.0166 1.441 63.0166 1.573C63.0166 1.705 62.9836 1.771 62.9176 1.771C62.3676 1.771 61.9716 1.826 61.7296 1.936C61.5096 2.046 61.3996 2.244 61.3996 2.53C61.3996 2.904 61.6526 3.63 62.1586 4.708L68.3956 17.941L67.0096 20.218L70.8046 10.153L71.4316 11.077L67.3726 21.967ZM85.8196 1.375C85.8636 1.375 85.8856 1.441 85.8856 1.573C85.8856 1.705 85.8636 1.771 85.8196 1.771C85.0056 1.771 84.2356 2.123 83.5096 2.827C82.8056 3.509 82.2226 4.455 81.7606 5.665L75.6556 21.967C75.6336 22.055 75.5126 22.099 75.2926 22.099C75.0726 22.099 74.9516 22.055 74.9296 21.967L66.5146 4.114C66.1406 3.322 65.7886 2.739 65.4586 2.365C65.1286 1.969 64.7766 1.771 64.4026 1.771C64.3366 1.771 64.3036 1.705 64.3036 1.573C64.3036 1.441 64.3366 1.375 64.4026 1.375C64.6226 1.375 64.8756 1.397 65.1616 1.441C65.4696 1.463 65.8986 1.474 66.4486 1.474C67.7026 1.474 68.7476 1.452 69.5836 1.408C69.8036 1.386 70.0896 1.375 70.4416 1.375C70.5076 1.375 70.5406 1.441 70.5406 1.573C70.5406 1.705 70.5076 1.771 70.4416 1.771C70.1336 1.771 69.9026 1.815 69.7486 1.903C69.6166 1.969 69.5506 2.101 69.5506 2.299C69.5506 2.673 69.8476 3.476 70.4416 4.708L76.7446 17.941L75.3256 20.218L80.6716 5.896C80.9356 5.192 81.0676 4.554 81.0676 3.982C81.0676 3.3 80.8916 2.761 80.5396 2.365C80.2096 1.969 79.7586 1.771 79.1866 1.771C79.1206 1.771 79.0876 1.705 79.0876 1.573C79.0876 1.441 79.1206 1.375 79.1866 1.375L80.7046 1.408C81.4966 1.452 82.2226 1.474 82.8826 1.474C83.3226 1.474 83.8286 1.452 84.4006 1.408L85.8196 1.375ZM72.7186 5.566C73.2026 4.312 73.4446 3.366 73.4446 2.728C73.4446 2.09 73.1696 1.771 72.6196 1.771C72.5536 1.771 72.5206 1.705 72.5206 1.573C72.5206 1.441 72.5536 1.375 72.6196 1.375C72.7956 1.375 72.9826 1.397 73.1806 1.441C73.4006 1.463 73.9286 1.474 74.7646 1.474C75.1386 1.474 75.5896 1.452 76.1176 1.408L77.3386 1.375C77.3826 1.375 77.4046 1.441 77.4046 1.573C77.4046 1.705 77.3826 1.771 77.3386 1.771C75.8646 1.771 74.6436 3.069 73.6756 5.665L71.6296 11.077L71.0026 10.153L72.7186 5.566ZM91.5185 19.327C91.5185 19.987 91.5735 20.482 91.6835 20.812C91.7935 21.12 91.9915 21.329 92.2775 21.439C92.5635 21.549 93.0255 21.604 93.6635 21.604C93.7075 21.604 93.7295 21.67 93.7295 21.802C93.7295 21.934 93.7075 22 93.6635 22C92.9815 22 92.4535 21.989 92.0795 21.967L89.8355 21.934L87.6905 21.967C87.2945 21.989 86.7445 22 86.0405 22C85.9965 22 85.9745 21.934 85.9745 21.802C85.9745 21.67 85.9965 21.604 86.0405 21.604C86.6785 21.604 87.1405 21.549 87.4265 21.439C87.7345 21.329 87.9435 21.12 88.0535 20.812C88.1635 20.482 88.2185 19.987 88.2185 19.327V9.229C88.2185 8.569 88.1635 8.085 88.0535 7.777C87.9435 7.469 87.7345 7.26 87.4265 7.15C87.1405 7.018 86.6785 6.952 86.0405 6.952C85.9965 6.952 85.9745 6.886 85.9745 6.754C85.9745 6.622 85.9965 6.556 86.0405 6.556L87.6905 6.589C88.5705 6.633 89.2855 6.655 89.8355 6.655C90.4295 6.655 91.1885 6.633 92.1125 6.589L93.6635 6.556C93.7075 6.556 93.7295 6.622 93.7295 6.754C93.7295 6.886 93.7075 6.952 93.6635 6.952C93.0475 6.952 92.5855 7.018 92.2775 7.15C91.9915 7.282 91.7935 7.513 91.6835 7.843C91.5735 8.151 91.5185 8.635 91.5185 9.295V19.327ZM100.915 19.261C100.915 19.921 100.948 20.416 101.014 20.746C101.102 21.054 101.256 21.274 101.476 21.406C101.718 21.538 102.081 21.604 102.565 21.604C102.609 21.604 102.631 21.67 102.631 21.802C102.631 21.934 102.609 22 102.565 22C101.927 22 101.421 21.989 101.047 21.967L99.1328 21.934L97.3178 21.967C96.9658 21.989 96.4708 22 95.8328 22C95.7888 22 95.7668 21.934 95.7668 21.802C95.7668 21.67 95.7888 21.604 95.8328 21.604C96.3388 21.604 96.7128 21.549 96.9548 21.439C97.2188 21.329 97.3948 21.12 97.4828 20.812C97.5708 20.482 97.6148 19.987 97.6148 19.327V9.229C97.6148 8.569 97.5708 8.085 97.4828 7.777C97.3948 7.469 97.2298 7.26 96.9878 7.15C96.7678 7.018 96.4158 6.952 95.9318 6.952C95.8658 6.952 95.8328 6.886 95.8328 6.754C95.8328 6.622 95.8658 6.556 95.9318 6.556L98.0768 6.589L100.288 6.556C100.552 6.556 100.717 6.6 100.783 6.688C100.871 6.754 100.915 6.919 100.915 7.183V19.261ZM99.6608 10.681C100.651 9.141 101.729 8.008 102.895 7.282C104.061 6.534 105.37 6.16 106.822 6.16C108.362 6.16 109.638 6.6 110.65 7.48C111.662 8.338 112.168 9.823 112.168 11.935V19.327C112.168 19.987 112.201 20.482 112.267 20.812C112.333 21.12 112.454 21.329 112.63 21.439C112.806 21.549 113.081 21.604 113.455 21.604C113.499 21.604 113.521 21.67 113.521 21.802C113.521 21.934 113.499 22 113.455 22C112.905 22 112.476 21.989 112.168 21.967L110.452 21.934L108.472 21.967C108.142 21.989 107.702 22 107.152 22C107.108 22 107.086 21.934 107.086 21.802C107.086 21.67 107.108 21.604 107.152 21.604C107.658 21.604 108.032 21.538 108.274 21.406C108.516 21.274 108.681 21.054 108.769 20.746C108.857 20.416 108.901 19.921 108.901 19.261V12.694C108.901 10.626 108.593 9.207 107.977 8.437C107.383 7.645 106.558 7.249 105.502 7.249C104.49 7.249 103.544 7.557 102.664 8.173C101.806 8.789 100.992 9.801 100.222 11.209L99.6608 10.681ZM124.007 22.396C122.247 22.396 120.707 22.033 119.387 21.307C118.089 20.559 117.099 19.58 116.417 18.37C115.735 17.16 115.394 15.884 115.394 14.542C115.394 12.826 115.779 11.341 116.549 10.087C117.341 8.811 118.452 7.843 119.882 7.183C121.312 6.501 122.995 6.16 124.931 6.16C125.899 6.16 126.823 6.248 127.703 6.424C128.605 6.6 129.353 6.853 129.947 7.183C130.101 7.249 130.189 7.326 130.211 7.414C130.255 7.502 130.288 7.667 130.31 7.909L130.475 11.011C130.475 11.077 130.409 11.121 130.277 11.143C130.167 11.143 130.101 11.11 130.079 11.044C128.385 8.272 126.416 6.886 124.172 6.886C122.61 6.886 121.378 7.513 120.476 8.767C119.596 10.021 119.156 11.803 119.156 14.113C119.156 16.357 119.662 18.172 120.674 19.558C121.686 20.944 123.061 21.637 124.799 21.637C125.679 21.637 126.317 21.549 126.713 21.373C127.131 21.175 127.406 20.823 127.538 20.317C127.692 19.789 127.769 18.964 127.769 17.842C127.769 17.27 127.725 16.874 127.637 16.654C127.549 16.412 127.362 16.258 127.076 16.192C126.79 16.104 126.295 16.06 125.591 16.06C125.459 16.06 125.393 15.972 125.393 15.796C125.393 15.73 125.404 15.675 125.426 15.631C125.47 15.565 125.514 15.532 125.558 15.532C126.702 15.62 127.857 15.664 129.023 15.664C129.551 15.664 130.431 15.642 131.663 15.598C131.707 15.598 131.74 15.631 131.762 15.697C131.806 15.741 131.828 15.785 131.828 15.829C131.828 15.983 131.773 16.06 131.663 16.06C131.333 16.038 131.102 16.071 130.97 16.159C130.838 16.247 130.75 16.434 130.706 16.72C130.662 16.984 130.64 17.468 130.64 18.172C130.64 19.162 130.662 19.855 130.706 20.251C130.772 20.647 130.805 20.922 130.805 21.076C130.805 21.208 130.783 21.296 130.739 21.34C130.695 21.362 130.585 21.406 130.409 21.472C128.935 22.088 126.801 22.396 124.007 22.396Z" fill="white"/>
<path d="M9.735 11.209L9.58468 10.7321L8.99486 10.9181L9.30019 11.4559L9.735 11.209ZM12.771 10.252L13.1934 9.9844L12.9875 9.6595L12.6207 9.77513L12.771 10.252ZM17.325 16.984L16.9256 17.2849L16.9283 17.2883L17.325 16.984ZM20.592 20.515L20.2819 20.9072L20.2876 20.9117L20.592 20.515ZM14.652 2.398L14.3708 2.81157L14.3804 2.81778L14.652 2.398ZM15.312 8.536L15.7176 8.82842L15.7207 8.82398L15.312 8.536ZM12.639 10.846L12.8697 11.2897L12.8766 11.286L12.639 10.846ZM7.425 11.671L7.45619 11.172L6.925 11.1388V11.671H7.425ZM7.59 20.812L7.11913 20.9802L7.11913 20.9802L7.59 20.812ZM8.217 21.439L8.04879 21.91L8.05889 21.9133L8.217 21.439ZM8.052 21.967L8.07828 21.4677L8.06844 21.4672L8.05858 21.467L8.052 21.967ZM5.544 21.934L5.55058 21.4339L5.53715 21.434L5.544 21.934ZM3.135 21.967L3.12815 21.467L3.11909 21.4672L3.11003 21.4676L3.135 21.967ZM2.871 21.439L2.71285 20.9646L2.70283 20.9681L2.871 21.439ZM3.531 20.812L3.06676 20.6263L3.06328 20.635L3.06013 20.6438L3.531 20.812ZM3.564 2.596L3.09313 2.76417L3.09313 2.76417L3.564 2.596ZM2.904 1.969L2.71831 2.43324L2.73195 2.43869L2.74589 2.44334L2.904 1.969ZM1.386 1.375L1.39543 0.875H1.386V1.375ZM3.135 1.408L3.15673 0.90832L3.14443 0.908089L3.135 1.408ZM7.656 1.375L7.69995 1.87307L7.70127 1.87295L7.656 1.375ZM8.58 1.309L8.55227 0.809766L8.55064 0.809862L8.58 1.309ZM11.748 2.992L11.3526 3.29809L11.3526 3.29809L11.748 2.992ZM7.887 2.464L8.25253 2.80516L8.25253 2.80516L7.887 2.464ZM7.425 10.714H6.925V11.1376L7.3428 11.2072L7.425 10.714ZM11.22 10.483L11.452 10.9259L11.452 10.9259L11.22 10.483ZM12.21 9.229L11.7411 9.05534L11.7383 9.06307L11.7357 9.07089L12.21 9.229ZM17.49 21.5C17.508 21.5 17.454 21.5028 17.3045 21.4046C17.1649 21.3131 16.9857 21.1625 16.7649 20.939C16.3241 20.4931 15.7669 19.8077 15.0906 18.8696L14.2794 19.4544C14.9671 20.4083 15.5594 21.1419 16.0536 21.642C16.3003 21.8915 16.5349 22.0957 16.7557 22.2406C16.9663 22.3789 17.2191 22.5 17.49 22.5V21.5ZM15.0906 18.8696C13.7418 16.9987 12.102 14.3655 10.1698 10.9621L9.30019 11.4559C11.24 14.8725 12.9002 17.5413 14.2794 19.4544L15.0906 18.8696ZM9.88532 11.6859L12.9213 10.7289L12.6207 9.77513L9.58468 10.7321L9.88532 11.6859ZM12.3486 10.5196C14.1776 13.4063 15.7039 15.6632 16.9257 17.2849L17.7243 16.6831C16.5261 15.0928 15.0164 12.8617 13.1934 9.9844L12.3486 10.5196ZM16.9283 17.2883C18.1709 18.9082 19.289 20.1221 20.2819 20.9072L20.9021 20.1228C20.003 19.4119 18.9431 18.2718 17.7217 16.6797L16.9283 17.2883ZM20.2876 20.9117C21.2928 21.6831 22.3211 22.104 23.364 22.104V21.104C22.6029 21.104 21.7832 20.7989 20.8964 20.1183L20.2876 20.9117ZM23.364 22.104C23.2337 22.104 23.1185 22.0491 23.0393 21.9699C22.9724 21.903 22.9472 21.8356 22.9392 21.8116C22.9241 21.7664 22.93 21.7506 22.93 21.802H23.93C23.93 21.7214 23.9249 21.6066 23.8878 21.4954C23.8551 21.3971 23.7181 21.104 23.364 21.104V22.104ZM22.93 21.802C22.93 21.8534 22.9241 21.8376 22.9392 21.7924C22.9472 21.7684 22.9724 21.701 23.0393 21.6341C23.1185 21.5549 23.2337 21.5 23.364 21.5V22.5C23.7181 22.5 23.8551 22.2069 23.8878 22.1086C23.9249 21.9974 23.93 21.8826 23.93 21.802H22.93ZM23.364 21.5H17.49V22.5H23.364V21.5ZM9.966 1.776C11.9386 1.776 13.3866 2.14219 14.3708 2.81146L14.9332 1.98454C13.7174 1.1578 12.0414 0.775999 9.966 0.775999V1.776ZM14.3804 2.81778C15.3621 3.45303 15.835 4.31914 15.835 5.467H16.835C16.835 3.97485 16.1859 2.79496 14.9236 1.97821L14.3804 2.81778ZM15.835 5.467C15.835 6.43174 15.532 7.35561 14.9033 8.24802L15.7207 8.82398C16.456 7.78039 16.835 6.65826 16.835 5.467H15.835ZM14.9064 8.2436C14.2717 9.12402 13.4399 9.84528 12.4014 10.406L12.8766 11.286C14.0381 10.6587 14.9883 9.83998 15.7176 8.8284L14.9064 8.2436ZM12.4083 10.4024C11.3749 10.9398 10.3206 11.204 9.24 11.204V12.204C10.4914 12.204 11.7031 11.8962 12.8697 11.2896L12.4083 10.4024ZM9.24 11.204C8.3819 11.204 7.79094 11.1929 7.45619 11.172L7.39381 12.17C7.76306 12.1931 8.3821 12.204 9.24 12.204V11.204ZM6.925 11.671V19.327H7.925V11.671H6.925ZM6.925 19.327C6.925 20.0179 6.97845 20.5863 7.11913 20.9802L8.06087 20.6438C7.98155 20.4217 7.925 20.0001 7.925 19.327H6.925ZM7.11913 20.9802C7.27955 21.4293 7.59965 21.7495 8.04883 21.9099L8.38517 20.9681C8.21835 20.9085 8.12045 20.8107 8.06087 20.6438L7.11913 20.9802ZM8.05889 21.9133C8.46908 22.0501 9.05358 22.104 9.768 22.104V21.104C9.07442 21.104 8.62492 21.0479 8.37511 20.9647L8.05889 21.9133ZM9.768 22.104C9.63772 22.104 9.52253 22.0491 9.44332 21.9699C9.3764 21.903 9.35115 21.8356 9.34316 21.8116C9.3281 21.7664 9.334 21.7506 9.334 21.802H10.334C10.334 21.7214 10.3289 21.6066 10.2918 21.4954C10.2591 21.3971 10.1221 21.104 9.768 21.104V22.104ZM9.334 21.802C9.334 21.8534 9.3281 21.8376 9.34316 21.7924C9.35115 21.7684 9.3764 21.701 9.44332 21.6341C9.52253 21.5549 9.63772 21.5 9.768 21.5V22.5C10.1221 22.5 10.2591 22.2069 10.2918 22.1086C10.3289 21.9974 10.334 21.8826 10.334 21.802H9.334ZM9.768 21.5C9.04542 21.5 8.48346 21.489 8.07828 21.4677L8.02572 22.4663C8.45655 22.489 9.03858 22.5 9.768 22.5V21.5ZM8.05858 21.467L5.55058 21.434L5.53742 22.434L8.04542 22.467L8.05858 21.467ZM5.53715 21.434L3.12815 21.467L3.14185 22.467L5.55085 22.434L5.53715 21.434ZM3.11003 21.4676C2.6821 21.489 2.09754 21.5 1.353 21.5V22.5C2.10446 22.5 2.7079 22.489 3.15997 22.4664L3.11003 21.4676ZM1.353 21.5C1.42399 21.5 1.50842 21.5192 1.58704 21.5716C1.66253 21.6219 1.70456 21.6841 1.72596 21.7269C1.7617 21.7984 1.754 21.8425 1.754 21.802H0.754C0.754 21.8935 0.762796 22.0366 0.831536 22.1741C0.869444 22.2499 0.932095 22.3368 1.03234 22.4037C1.13571 22.4726 1.24901 22.5 1.353 22.5V21.5ZM1.754 21.802C1.754 21.7615 1.7617 21.8056 1.72596 21.8771C1.70456 21.9199 1.66253 21.9821 1.58704 22.0324C1.50842 22.0848 1.42399 22.104 1.353 22.104V21.104C1.24901 21.104 1.13571 21.1314 1.03234 21.2003C0.932095 21.2672 0.869444 21.3541 0.831536 21.4299C0.762796 21.5674 0.754 21.7105 0.754 21.802H1.754ZM1.353 22.104C2.06374 22.104 2.64428 22.0509 3.03917 21.9099L2.70283 20.9681C2.48172 21.0471 2.05026 21.104 1.353 21.104V22.104ZM3.02911 21.9133C3.49416 21.7583 3.83651 21.4432 4.00187 20.9802L3.06013 20.6438C3.00549 20.7968 2.90784 20.8997 2.71289 20.9647L3.02911 21.9133ZM3.99524 20.9977C4.16322 20.5777 4.229 20.0056 4.229 19.327H3.229C3.229 19.9684 3.16278 20.3863 3.06676 20.6263L3.99524 20.9977ZM4.229 19.327V4.048H3.229V19.327H4.229ZM4.229 4.048C4.229 3.3768 4.17518 2.82071 4.03487 2.42783L3.09313 2.76417C3.17282 2.98729 3.229 3.3992 3.229 4.048H4.229ZM4.03487 2.42783C3.86951 1.96483 3.52716 1.64967 3.06211 1.49466L2.74589 2.44334C2.94084 2.50833 3.03849 2.61117 3.09313 2.76417L4.03487 2.42783ZM3.0897 1.50476C2.66849 1.33628 2.08407 1.271 1.386 1.271V2.271C2.05193 2.271 2.47951 2.33772 2.71831 2.43324L3.0897 1.50476ZM1.386 1.271C1.51628 1.271 1.63147 1.32586 1.71068 1.40507C1.7776 1.47199 1.80285 1.53941 1.81084 1.56338C1.8259 1.60855 1.82 1.62441 1.82 1.573H0.82C0.82 1.65359 0.825102 1.76844 0.862159 1.87961C0.894934 1.97794 1.03187 2.271 1.386 2.271V1.271ZM1.82 1.573C1.82 1.52159 1.8259 1.53745 1.81084 1.58261C1.80285 1.60659 1.7776 1.674 1.71068 1.74093C1.63147 1.82013 1.51628 1.875 1.386 1.875V0.875C1.03187 0.875 0.894934 1.16806 0.862159 1.26639C0.825102 1.37755 0.82 1.49241 0.82 1.573H1.82ZM1.37657 1.87491L3.12557 1.90791L3.14443 0.908089L1.39543 0.875089L1.37657 1.87491ZM3.11328 1.90753C4.12825 1.95166 4.93947 1.974 5.544 1.974V0.973999C4.96053 0.973999 4.16575 0.952342 3.15672 0.908471L3.11328 1.90753ZM5.544 1.974C6.2205 1.974 6.93928 1.94018 7.69995 1.87306L7.61205 0.876935C6.87672 0.941817 6.1875 0.973999 5.544 0.973999V1.974ZM7.70127 1.87295C7.93596 1.85161 8.23817 1.82997 8.60936 1.80814L8.55064 0.809862C8.17384 0.832026 7.86004 0.854388 7.61073 0.877054L7.70127 1.87295ZM8.60774 1.80823C8.99206 1.78688 9.44443 1.776 9.966 1.776V0.775999C9.43157 0.775999 8.95994 0.78712 8.55227 0.809769L8.60774 1.80823ZM13.04 6.721C13.04 4.90547 12.7818 3.51055 12.1434 2.68591L11.3526 3.29809C11.7702 3.83745 12.04 4.92852 12.04 6.721H13.04ZM12.1434 2.68591C11.5059 1.86247 10.5898 1.469 9.471 1.469V2.469C10.3322 2.469 10.9341 2.75753 11.3526 3.29809L12.1434 2.68591ZM9.471 1.469C8.67165 1.469 7.97049 1.64175 7.52147 2.12284L8.25253 2.80516C8.41951 2.62625 8.77435 2.469 9.471 2.469V1.469ZM7.52147 2.12284C7.08356 2.59203 6.925 3.30018 6.925 4.114H7.925C7.925 3.38782 8.07444 2.99596 8.25253 2.80516L7.52147 2.12284ZM6.925 4.114V10.714H7.925V4.114H6.925ZM7.3428 11.2072C7.90627 11.3011 8.5734 11.346 9.339 11.346V10.346C8.6086 10.346 7.99973 10.3029 7.5072 10.2208L7.3428 11.2072ZM9.339 11.346C10.1735 11.346 10.8908 11.2199 11.452 10.9259L10.988 10.0401C10.6252 10.2301 10.0885 10.346 9.339 10.346V11.346ZM11.452 10.9259C12.0509 10.6122 12.4542 10.0776 12.6843 9.38711L11.7357 9.07089C11.5698 9.56836 11.3131 9.86979 10.988 10.0401L11.452 10.9259ZM12.6789 9.40266C12.929 8.72737 13.04 7.82268 13.04 6.721H12.04C12.04 7.77531 11.931 8.54263 11.7411 9.05534L12.6789 9.40266ZM26.5018 21.307L26.2354 21.7302L26.2446 21.7357L26.5018 21.307ZM23.7958 18.403L24.2397 18.1728L24.2397 18.1728L23.7958 18.403ZM23.9938 10.384L24.4233 10.6401L24.4252 10.6369L23.9938 10.384ZM27.0298 7.381L27.2771 7.81562L27.2827 7.81235L27.0298 7.381ZM36.1048 11.506L35.6761 11.2488L35.6555 11.2831L35.6406 11.3203L36.1048 11.506ZM32.6398 11.671L32.1407 11.6416L32.1096 12.171H32.6398V11.671ZM32.1118 8.239L31.6695 8.47243L31.6748 8.48182L32.1118 8.239ZM27.3598 8.701L26.9311 8.44375L26.9311 8.44375L27.3598 8.701ZM27.9868 18.964L27.5854 19.262L27.5854 19.262L27.9868 18.964ZM34.2238 20.911L34.3538 21.3938L34.3538 21.3938L34.2238 20.911ZM35.7418 20.218V19.718H35.5842L35.4551 19.8084L35.7418 20.218ZM35.9398 20.35L35.4926 20.5736L35.5289 20.6462L35.5863 20.7036L35.9398 20.35ZM35.9728 20.548L36.2852 20.9384L36.3458 20.8899L36.3889 20.8254L35.9728 20.548ZM24.6538 11.077L24.6452 10.5771L24.1273 10.586L24.1545 11.1033L24.6538 11.077ZM34.1908 10.912H34.6908V10.4033L34.1822 10.4121L34.1908 10.912ZM34.1908 11.671L34.1926 12.171L34.6908 12.1693V11.671H34.1908ZM24.6868 11.704L24.1875 11.7303L24.2125 12.2056L24.6886 12.204L24.6868 11.704ZM30.8908 21.896C29.2459 21.896 27.8761 21.5485 26.7591 20.8783L26.2446 21.7357C27.5475 22.5175 29.1038 22.896 30.8908 22.896V21.896ZM26.7682 20.8839C25.6517 20.1809 24.8127 19.2779 24.2397 18.1728L23.352 18.6332C24.0109 19.9041 24.976 20.9371 26.2354 21.7301L26.7682 20.8839ZM24.2397 18.1728C23.6619 17.0585 23.3718 15.8509 23.3718 14.542H22.3718C22.3718 16.0051 22.6977 17.3715 23.352 18.6332L24.2397 18.1728ZM23.3718 14.542C23.3718 13.1104 23.7233 11.8135 24.4232 10.6401L23.5644 10.1279C22.7683 11.4625 22.3718 12.9376 22.3718 14.542H23.3718ZM24.4252 10.6369C25.1292 9.43594 26.0779 8.49786 27.2771 7.81558L26.7826 6.94642C25.4297 7.71614 24.3545 8.78006 23.5625 10.1311L24.4252 10.6369ZM27.2827 7.81235C28.4811 7.10984 29.7797 6.759 31.1878 6.759V5.759C29.604 5.759 28.1306 6.15616 26.777 6.94965L27.2827 7.81235ZM31.1878 6.759C32.7299 6.759 33.8276 7.16386 34.5633 7.89955L35.2704 7.19245C34.2901 6.21214 32.9017 5.759 31.1878 5.759V6.759ZM34.5633 7.89955C35.314 8.65022 35.7038 9.63811 35.7038 10.912H36.7038C36.7038 9.41389 36.2357 8.15778 35.2704 7.19245L34.5633 7.89955ZM35.7038 10.912C35.7038 11.038 35.6964 11.1297 35.6859 11.1928C35.6745 11.261 35.6638 11.2692 35.6761 11.2488L36.5336 11.7632C36.6764 11.5251 36.7038 11.2023 36.7038 10.912H35.7038ZM35.6406 11.3203C35.6485 11.3005 35.6621 11.2757 35.6837 11.2507C35.7055 11.2256 35.7304 11.2062 35.7548 11.1927C35.8015 11.1667 35.8291 11.171 35.8078 11.171V12.171C35.9405 12.171 36.0947 12.1478 36.2404 12.0668C36.3953 11.9808 36.5065 11.8481 36.5691 11.6917L35.6406 11.3203ZM35.8078 11.171H32.6398V12.171H35.8078V11.171ZM33.139 11.7004C33.2293 10.1652 33.0562 8.90921 32.5489 7.99618L31.6748 8.48182C32.0475 9.15279 32.2264 10.1848 32.1407 11.6416L33.139 11.7004ZM32.554 8.00562C32.3073 7.5382 31.9706 7.16685 31.5379 6.91561C31.1067 6.66524 30.6094 6.551 30.0658 6.551V7.551C30.4683 7.551 30.785 7.63476 31.0358 7.78039C31.2851 7.92515 31.4983 8.1478 31.6696 8.47238L32.554 8.00562ZM30.0658 6.551C28.7221 6.551 27.6683 7.21502 26.9311 8.44375L27.7886 8.95825C28.3713 7.98698 29.1216 7.551 30.0658 7.551V6.551ZM26.9311 8.44375C26.2083 9.64841 25.8698 11.222 25.8698 13.123H26.8698C26.8698 11.328 27.1914 9.95359 27.7886 8.95825L26.9311 8.44375ZM25.8698 13.123C25.8698 15.6352 26.4243 17.6982 27.5854 19.262L28.3883 18.6659C27.3934 17.3258 26.8698 15.4948 26.8698 13.123H25.8698ZM27.5854 19.262C28.7664 20.8528 30.4398 21.642 32.5408 21.642V20.642C30.7259 20.642 29.3633 19.9792 28.3883 18.6659L27.5854 19.262ZM32.5408 21.642C33.138 21.642 33.7427 21.5583 34.3538 21.3938L34.0938 20.4282C33.561 20.5717 33.0437 20.642 32.5408 20.642V21.642ZM34.3538 21.3938C34.9762 21.2263 35.5363 20.9722 36.0286 20.6276L35.4551 19.8084C35.0674 20.0798 34.6155 20.2877 34.0938 20.4282L34.3538 21.3938ZM35.7418 20.718H35.7748V19.718H35.7418V20.718ZM35.7748 20.718C35.6864 20.718 35.608 20.6852 35.5532 20.6414C35.529 20.6221 35.5135 20.6039 35.5048 20.5923C35.5003 20.5863 35.4973 20.5816 35.4954 20.5786C35.4936 20.5755 35.4927 20.5737 35.4926 20.5736L36.3871 20.1264C36.3049 19.962 36.1157 19.718 35.7748 19.718V20.718ZM35.5863 20.7036C35.5739 20.6911 35.5216 20.6344 35.5044 20.5312C35.4852 20.4162 35.5223 20.3225 35.5568 20.2706L36.3889 20.8254C36.4674 20.7075 36.521 20.5478 36.4908 20.3668C36.4626 20.1976 36.3718 20.0749 36.2934 19.9964L35.5863 20.7036ZM35.6605 20.1576C34.2028 21.3238 32.6174 21.896 30.8908 21.896V22.896C32.8603 22.896 34.6629 22.2362 36.2852 20.9384L35.6605 20.1576ZM24.6625 11.5769L34.1995 11.4119L34.1822 10.4121L24.6452 10.5771L24.6625 11.5769ZM33.6908 10.912V11.671H34.6908V10.912H33.6908ZM34.1891 11.171L24.6851 11.204L24.6886 12.204L34.1926 12.171L34.1891 11.171ZM25.1861 11.6777L25.1531 11.0507L24.1545 11.1033L24.1875 11.7303L25.1861 11.6777ZM43.963 22.033L44.0057 21.5348L44.0045 21.5347L43.963 22.033ZM42.973 21.967L42.9452 22.4662L42.9452 22.4662L42.973 21.967ZM41.62 21.934V21.4339L41.6123 21.4341L41.62 21.934ZM39.475 21.967L39.4673 21.4671L39.4572 21.4672L39.4472 21.4678L39.475 21.967ZM39.244 21.439L39.0757 20.968L39.0645 20.9723L39.244 21.439ZM39.838 20.812L39.3636 20.6539L39.3602 20.6642L39.3572 20.6746L39.838 20.812ZM39.838 7.777L39.3572 7.91436L39.3616 7.92992L39.3671 7.94517L39.838 7.777ZM39.244 7.15L39.0344 7.60398L39.0547 7.61335L39.0758 7.62087L39.244 7.15ZM37.891 6.556L37.9014 6.056H37.891V6.556ZM39.475 6.589L39.4999 6.08962L39.4927 6.08926L39.4854 6.08911L39.475 6.589ZM43.666 6.556L43.641 6.05662L43.6294 6.0572L43.6178 6.05832L43.666 6.556ZM50.431 7.48L50.6516 7.03132L50.6516 7.03132L50.431 7.48ZM53.5 10.219L53.0719 10.4774L53.0719 10.4774L53.5 10.219ZM53.467 18.271L53.8957 18.5282L53.8957 18.5282L53.467 18.271ZM50.431 21.109L50.6635 21.5516L50.6635 21.5516L50.431 21.109ZM49.408 19.624L49.0097 19.3216L49.0097 19.3216L49.408 19.624ZM49.408 9.262L48.9869 9.53172L48.9889 9.53473L49.408 9.262ZM43.732 7.612L43.3908 7.24647L43.3845 7.25235L43.3784 7.25845L43.732 7.612ZM43.732 20.878L43.346 21.1959L43.3562 21.2083L43.3672 21.22L43.732 20.878ZM46.009 21.632C45.4327 21.632 44.7654 21.5999 44.0057 21.5348L43.9203 22.5312C44.7005 22.5981 45.3972 22.632 46.009 22.632V21.632ZM44.0045 21.5347C43.7342 21.5122 43.3993 21.4899 43.0007 21.4678L42.9452 22.4662C43.3386 22.4881 43.6637 22.5098 43.9214 22.5313L44.0045 21.5347ZM43.0007 21.4678C42.5934 21.4451 42.1328 21.434 41.62 21.434V22.434C42.1191 22.434 42.5606 22.4449 42.9452 22.4662L43.0007 21.4678ZM41.6123 21.4341L39.4673 21.4671L39.4827 22.4669L41.6277 22.4339L41.6123 21.4341ZM39.4472 21.4678C39.0649 21.489 38.5256 21.5 37.825 21.5V22.5C38.5323 22.5 39.093 22.489 39.5027 22.4662L39.4472 21.4678ZM37.825 21.5C37.9552 21.5 38.0704 21.5549 38.1496 21.6341C38.2166 21.701 38.2418 21.7684 38.2498 21.7924C38.2649 21.8376 38.259 21.8534 38.259 21.802H37.259C37.259 21.8826 37.2641 21.9974 37.3011 22.1086C37.3339 22.2069 37.4708 22.5 37.825 22.5V21.5ZM38.259 21.802C38.259 21.7506 38.2649 21.7664 38.2498 21.8116C38.2418 21.8356 38.2166 21.903 38.1496 21.9699C38.0704 22.0491 37.9552 22.104 37.825 22.104V21.104C37.4708 21.104 37.3339 21.3971 37.3011 21.4954C37.2641 21.6066 37.259 21.7214 37.259 21.802H38.259ZM37.825 22.104C38.492 22.104 39.0451 22.0512 39.4235 21.9057L39.0645 20.9723C38.8708 21.0468 38.4779 21.104 37.825 21.104V22.104ZM39.4121 21.9099C39.8682 21.747 40.1853 21.4163 40.3187 20.9494L39.3572 20.6746C39.3146 20.8237 39.2357 20.911 39.0758 20.9681L39.4121 21.9099ZM40.3123 20.9701C40.4484 20.5619 40.503 20.0016 40.503 19.327H39.503C39.503 19.9724 39.4476 20.4021 39.3636 20.6539L40.3123 20.9701ZM40.503 19.327V9.229H39.503V19.327H40.503ZM40.503 9.229C40.503 8.5578 40.4491 8.00171 40.3088 7.60883L39.3671 7.94517C39.4468 8.16829 39.503 8.5802 39.503 9.229H40.503ZM40.3187 7.63964C40.1853 7.17273 39.8682 6.84202 39.4121 6.67913L39.0758 7.62087C39.2357 7.67798 39.3146 7.76527 39.3572 7.91436L40.3187 7.63964ZM39.4535 6.69602C39.065 6.51671 38.5232 6.452 37.891 6.452V7.452C38.4908 7.452 38.8509 7.51929 39.0344 7.60398L39.4535 6.69602ZM37.891 6.452C37.962 6.452 38.0464 6.47118 38.125 6.5236C38.2005 6.57393 38.2425 6.63608 38.2639 6.67889C38.2997 6.75037 38.292 6.79446 38.292 6.754H37.292C37.292 6.84554 37.3008 6.98863 37.3695 7.12611C37.4074 7.20192 37.4701 7.28882 37.5703 7.35565C37.6737 7.42456 37.787 7.452 37.891 7.452V6.452ZM38.292 6.754C38.292 6.71354 38.2997 6.75763 38.2639 6.82911C38.2425 6.87192 38.2005 6.93407 38.125 6.9844C38.0464 7.03681 37.962 7.056 37.891 7.056V6.056C37.787 6.056 37.6737 6.08343 37.5703 6.15235C37.4701 6.21918 37.4074 6.30608 37.3695 6.38189C37.3008 6.51937 37.292 6.66246 37.292 6.754H38.292ZM37.8805 7.05589L39.4645 7.08889L39.4854 6.08911L37.9014 6.05611L37.8805 7.05589ZM39.45 7.08838C40.334 7.13258 41.0582 7.155 41.62 7.155V6.155C41.0817 6.155 40.3759 6.13342 39.4999 6.08962L39.45 7.08838ZM41.62 7.155C42.3181 7.155 43.0162 7.12122 43.7141 7.05367L43.6178 6.05832C42.9517 6.12278 42.2858 6.155 41.62 6.155V7.155ZM43.6909 7.05538C44.5691 7.01147 45.2189 6.99 45.646 6.99V5.99C45.193 5.99 44.5228 6.01253 43.641 6.05662L43.6909 7.05538ZM45.646 6.99C47.4351 6.99 48.9512 7.30945 50.2103 7.92867L50.6516 7.03132C49.2267 6.33054 47.5528 5.99 45.646 5.99V6.99ZM50.2103 7.92867C51.4751 8.55072 52.4222 9.40135 53.0719 10.4774L53.928 9.96056C53.1697 8.70465 52.0708 7.72928 50.6516 7.03132L50.2103 7.92867ZM53.0719 10.4774C53.725 11.5591 54.056 12.7883 54.056 14.179H55.056C55.056 12.6217 54.6829 11.2109 53.928 9.96056L53.0719 10.4774ZM54.056 14.179C54.056 15.6135 53.7141 16.8873 53.0382 18.0138L53.8957 18.5282C54.6719 17.2347 55.056 15.7805 55.056 14.179H54.056ZM53.0382 18.0138C52.3613 19.142 51.4186 20.0253 50.1984 20.6664L50.6635 21.5516C52.0394 20.8287 53.1206 19.82 53.8957 18.5282L53.0382 18.0138ZM50.1984 20.6664C48.9807 21.3062 47.5882 21.632 46.009 21.632V22.632C47.7297 22.632 49.2852 22.2758 50.6635 21.5516L50.1984 20.6664ZM45.646 21.906C47.3944 21.906 48.8015 21.2495 49.8062 19.9264L49.0097 19.3216C48.2104 20.3745 47.1095 20.906 45.646 20.906V21.906ZM49.8062 19.9264C50.799 18.6187 51.261 16.8015 51.261 14.542H50.261C50.261 16.6825 49.8209 18.2533 49.0097 19.3216L49.8062 19.9264ZM51.261 14.542C51.261 12.339 50.7952 10.477 49.827 8.98927L48.9889 9.53473C49.8247 10.819 50.261 12.477 50.261 14.542H51.261ZM49.829 8.99229C48.8267 7.42777 47.3073 6.65 45.349 6.65V7.65C46.9986 7.65 48.1852 8.28023 48.9869 9.53171L49.829 8.99229ZM45.349 6.65C44.5524 6.65 43.8579 6.81048 43.3908 7.24647L44.0731 7.97753C44.266 7.79752 44.6495 7.65 45.349 7.65V6.65ZM43.3784 7.25845C42.9227 7.71414 42.77 8.45175 42.77 9.295H43.77C43.77 8.51025 43.9252 8.12586 44.0855 7.96555L43.3784 7.25845ZM42.77 9.295V18.964H43.77V9.295H42.77ZM42.77 18.964C42.77 19.8945 42.9232 20.6824 43.346 21.1959L44.1179 20.5601C43.9247 20.3256 43.77 19.8375 43.77 18.964H42.77ZM43.3672 21.22C43.8497 21.7347 44.6792 21.906 45.646 21.906V20.906C44.7207 20.906 44.2742 20.7253 44.0967 20.536L43.3672 21.22ZM67.3726 21.967L66.9041 21.7924L66.8943 21.8186L66.8875 21.8457L67.3726 21.967ZM66.6466 21.967L67.1317 21.8457L67.1198 21.7982L67.0989 21.7538L66.6466 21.967ZM58.2316 4.114L57.7789 4.32622L57.7793 4.32718L58.2316 4.114ZM57.4066 2.596L56.986 2.86638L56.9926 2.87667L56.9997 2.88662L57.4066 2.596ZM56.7136 1.969L56.4742 2.40795L56.4971 2.42047L56.5213 2.43054L56.7136 1.969ZM56.4166 1.408L56.3344 1.9012L56.3505 1.90389L56.3668 1.90552L56.4166 1.408ZM61.8616 1.408L61.8833 1.90753L61.8916 1.90717L61.8999 1.90653L61.8616 1.408ZM61.7296 1.936L61.5227 1.48082L61.5143 1.48465L61.506 1.48878L61.7296 1.936ZM62.1586 4.708L61.706 4.92045L61.7063 4.92117L62.1586 4.708ZM68.3956 17.941L68.8227 18.201L68.9626 17.9712L68.8479 17.7278L68.3956 17.941ZM67.0096 20.218L66.5417 20.0416L67.4367 20.478L67.0096 20.218ZM70.8046 10.153L71.2183 9.87225L70.6769 9.07438L70.3367 9.9766L70.8046 10.153ZM71.4316 11.077L71.9001 11.2516L71.9902 11.0098L71.8453 10.7962L71.4316 11.077ZM85.8196 1.375V0.874865L85.808 0.875135L85.8196 1.375ZM83.5096 2.827L83.8575 3.18612L83.8577 3.18595L83.5096 2.827ZM81.7606 5.665L81.2935 5.48664L81.2924 5.48964L81.7606 5.665ZM75.6556 21.967L75.1874 21.7916L75.1774 21.8182L75.1705 21.8457L75.6556 21.967ZM74.9296 21.967L75.4147 21.8457L75.4028 21.7982L75.3819 21.7538L74.9296 21.967ZM66.5146 4.114L66.9669 3.90082L66.9667 3.90049L66.5146 4.114ZM65.4586 2.365L65.0743 2.68522L65.0837 2.69581L65.4586 2.365ZM65.1616 1.441L65.0856 1.93519L65.1057 1.93828L65.126 1.93973L65.1616 1.441ZM69.5836 1.408L69.6099 1.90731L69.6216 1.90669L69.6333 1.90552L69.5836 1.408ZM69.7486 1.903L69.9722 2.35021L69.9846 2.34401L69.9967 2.33712L69.7486 1.903ZM70.4416 4.708L70.893 4.49299L70.892 4.49085L70.4416 4.708ZM76.7446 17.941L77.1689 18.2054L77.3137 17.9731L77.196 17.726L76.7446 17.941ZM75.3256 20.218L74.8572 20.0431L75.7499 20.4824L75.3256 20.218ZM80.6716 5.896L80.2034 5.72044L80.2032 5.72115L80.6716 5.896ZM80.5396 2.365L80.1555 2.68509L80.1606 2.69122L80.1659 2.69718L80.5396 2.365ZM79.1866 1.375L79.1975 0.875H79.1866V1.375ZM80.7046 1.408L80.7323 0.908769L80.7239 0.908301L80.7155 0.908118L80.7046 1.408ZM84.4006 1.408L84.389 0.908135L84.3756 0.908446L84.3622 0.909472L84.4006 1.408ZM72.7186 5.566L72.2521 5.38595L72.2503 5.39081L72.7186 5.566ZM73.1806 1.441L73.0721 1.92909L73.1012 1.93555L73.1308 1.93852L73.1806 1.441ZM76.1176 1.408L76.1041 0.908182L76.0901 0.908561L76.0761 0.909727L76.1176 1.408ZM77.3386 1.375V0.874817L77.3251 0.875183L77.3386 1.375ZM73.6756 5.665L74.1433 5.84181L74.1441 5.83969L73.6756 5.665ZM71.6296 11.077L71.2159 11.3577L71.7567 12.1548L72.0973 11.2538L71.6296 11.077ZM71.0026 10.153L70.5343 9.97781L70.4437 10.2199L70.5889 10.4337L71.0026 10.153ZM66.8875 21.8457C66.9074 21.7663 66.9501 21.7019 66.9984 21.6573C67.0422 21.6169 67.0815 21.6008 67.0945 21.5961C67.1081 21.5912 67.1095 21.5926 67.092 21.5949C67.0755 21.597 67.0488 21.599 67.0096 21.599V22.599C67.1426 22.599 67.2955 22.5871 67.4362 22.5359C67.5821 22.4828 67.791 22.3549 67.8577 22.0883L66.8875 21.8457ZM67.0096 21.599C66.9704 21.599 66.9436 21.597 66.9271 21.5949C66.9097 21.5926 66.9111 21.5912 66.9247 21.5961C66.9377 21.6008 66.9769 21.6169 67.0208 21.6573C67.0691 21.7019 67.1118 21.7663 67.1317 21.8457L66.1615 22.0883C66.2282 22.3549 66.437 22.4828 66.583 22.5359C66.7237 22.5871 66.8766 22.599 67.0096 22.599V21.599ZM67.0989 21.7538L58.6839 3.90082L57.7793 4.32718L66.1943 22.1802L67.0989 21.7538ZM58.6843 3.90178C58.3519 3.19267 58.0612 2.65225 57.8135 2.30538L56.9997 2.88662C57.192 3.15575 57.4513 3.62732 57.7789 4.32622L58.6843 3.90178ZM57.8272 2.32562C57.5896 1.95608 57.2868 1.66618 56.9059 1.50746L56.5213 2.43054C56.6684 2.49182 56.8276 2.61992 56.986 2.86638L57.8272 2.32562ZM56.953 1.53005C56.6093 1.34254 56.1856 1.271 55.7236 1.271V2.271C56.0976 2.271 56.3339 2.33146 56.4742 2.40795L56.953 1.53005ZM55.7236 1.271C55.7946 1.271 55.879 1.29018 55.9576 1.3426C56.0331 1.39293 56.0751 1.45508 56.0966 1.49789C56.1323 1.56937 56.1246 1.61346 56.1246 1.573H55.1246C55.1246 1.66454 55.1334 1.80763 55.2021 1.94511C55.24 2.02092 55.3027 2.10782 55.4029 2.17465C55.5063 2.24356 55.6196 2.271 55.7236 2.271V1.271ZM56.1246 1.573C56.1246 1.53254 56.1323 1.57663 56.0966 1.64811C56.0751 1.69092 56.0331 1.75307 55.9576 1.8034C55.879 1.85582 55.7946 1.875 55.7236 1.875V0.875C55.6196 0.875 55.5063 0.902435 55.4029 0.971349C55.3027 1.03818 55.24 1.12508 55.2021 1.20089C55.1334 1.33837 55.1246 1.48146 55.1246 1.573H56.1246ZM55.7236 1.875C56.0544 1.875 56.2478 1.88676 56.3344 1.9012L56.4988 0.914802C56.3214 0.885241 56.0528 0.875 55.7236 0.875V1.875ZM56.3668 1.90552C56.8301 1.95184 57.4205 1.974 58.1326 1.974V0.973999C57.4367 0.973999 56.8831 0.952157 56.4663 0.910481L56.3668 1.90552ZM58.1326 1.974C59.6109 1.974 60.8616 1.95195 61.8833 1.90753L61.8399 0.908471C60.8375 0.95205 59.6023 0.973999 58.1326 0.973999V1.974ZM61.8999 1.90653C62.1689 1.88584 62.5072 1.875 62.9176 1.875V0.875C62.492 0.875 62.1263 0.88616 61.8232 0.909472L61.8999 1.90653ZM62.9176 1.875C62.8466 1.875 62.7622 1.85582 62.6836 1.8034C62.6081 1.75307 62.566 1.69092 62.5446 1.64811C62.5089 1.57663 62.5166 1.53254 62.5166 1.573H63.5166C63.5166 1.48146 63.5078 1.33837 63.4391 1.20089C63.4011 1.12508 63.3385 1.03818 63.2383 0.971349C63.1349 0.902435 63.0216 0.875 62.9176 0.875V1.875ZM62.5166 1.573C62.5166 1.61346 62.5089 1.56937 62.5446 1.49789C62.566 1.45508 62.6081 1.39293 62.6836 1.3426C62.7622 1.29018 62.8466 1.271 62.9176 1.271V2.271C63.0216 2.271 63.1349 2.24356 63.2383 2.17465C63.3385 2.10782 63.4011 2.02092 63.4391 1.94511C63.5078 1.80763 63.5166 1.66454 63.5166 1.573H62.5166ZM62.9176 1.271C62.3565 1.271 61.8683 1.32374 61.5227 1.48082L61.9365 2.39118C62.0749 2.32826 62.3787 2.271 62.9176 2.271V1.271ZM61.506 1.48878C61.314 1.58479 61.1532 1.72948 61.045 1.92418C60.9393 2.11451 60.8996 2.32394 60.8996 2.53H61.8996C61.8996 2.45006 61.9149 2.41749 61.9192 2.40982C61.9214 2.40582 61.9235 2.40326 61.9264 2.40053C61.9296 2.39755 61.9373 2.39118 61.9532 2.38321L61.506 1.48878ZM60.8996 2.53C60.8996 2.80567 60.9875 3.14734 61.1172 3.51954C61.2516 3.90511 61.4491 4.3733 61.706 4.92045L62.6112 4.49554C62.362 3.9647 62.1801 3.53089 62.0615 3.19046C61.9382 2.83666 61.8996 2.62832 61.8996 2.53H60.8996ZM61.7063 4.92117L67.9433 18.1542L68.8479 17.7278L62.6109 4.49483L61.7063 4.92117ZM67.9685 17.681L66.5825 19.958L67.4367 20.478L68.8227 18.201L67.9685 17.681ZM67.4774 20.3944L71.2724 10.3294L70.3367 9.9766L66.5417 20.0416L67.4774 20.3944ZM70.3909 10.4338L71.0179 11.3577L71.8453 10.7962L71.2183 9.87225L70.3909 10.4338ZM70.9631 10.9024L66.9041 21.7924L67.8411 22.1416L71.9001 11.2516L70.9631 10.9024ZM85.8196 1.875C85.6893 1.875 85.5741 1.82013 85.4949 1.74093C85.428 1.674 85.4027 1.60659 85.3948 1.58261C85.3797 1.53744 85.3856 1.52159 85.3856 1.573H86.3856C86.3856 1.49241 86.3805 1.37756 86.3434 1.26639C86.3107 1.16807 86.1737 0.875 85.8196 0.875V1.875ZM85.3856 1.573C85.3856 1.62441 85.3797 1.60855 85.3948 1.56339C85.4027 1.53941 85.428 1.472 85.4949 1.40507C85.5741 1.32587 85.6893 1.271 85.8196 1.271V2.271C86.1737 2.271 86.3107 1.97793 86.3434 1.87961C86.3805 1.76844 86.3856 1.65359 86.3856 1.573H85.3856ZM85.8196 1.271C84.8459 1.271 83.957 1.69668 83.1615 2.46805L83.8577 3.18595C84.5142 2.54931 85.1653 2.271 85.8196 2.271V1.271ZM83.1617 2.46788C82.3912 3.21428 81.7735 4.22934 81.2935 5.48665L82.2277 5.84335C82.6716 4.68065 83.22 3.80372 83.8575 3.18612L83.1617 2.46788ZM81.2924 5.48964L75.1874 21.7916L76.1238 22.1424L82.2288 5.84035L81.2924 5.48964ZM75.1705 21.8457C75.1904 21.7663 75.2331 21.7019 75.2814 21.6573C75.3252 21.6169 75.3645 21.6008 75.3775 21.5961C75.3911 21.5912 75.3925 21.5926 75.375 21.5949C75.3585 21.597 75.3318 21.599 75.2926 21.599V22.599C75.4256 22.599 75.5785 22.5871 75.7192 22.5359C75.8651 22.4828 76.074 22.3549 76.1407 22.0883L75.1705 21.8457ZM75.2926 21.599C75.2534 21.599 75.2266 21.597 75.2101 21.5949C75.1927 21.5926 75.1941 21.5912 75.2077 21.5961C75.2207 21.6008 75.2599 21.6169 75.3038 21.6573C75.3521 21.7019 75.3948 21.7663 75.4147 21.8457L74.4445 22.0883C74.5112 22.3549 74.72 22.4828 74.866 22.5359C75.0067 22.5871 75.1596 22.599 75.2926 22.599V21.599ZM75.3819 21.7538L66.9669 3.90082L66.0623 4.32718L74.4773 22.1802L75.3819 21.7538ZM66.9667 3.90049C66.5853 3.09287 66.2096 2.4604 65.8335 2.03419L65.0837 2.69581C65.3676 3.0176 65.6958 3.55112 66.0625 4.3275L66.9667 3.90049ZM65.8427 2.04491C65.4555 1.58026 64.9753 1.271 64.4026 1.271V2.271C64.5779 2.271 64.8017 2.35774 65.0745 2.68509L65.8427 2.04491ZM64.4026 1.271C64.4736 1.271 64.558 1.29018 64.6366 1.3426C64.7121 1.39293 64.7542 1.45508 64.7756 1.49789C64.8113 1.56937 64.8036 1.61346 64.8036 1.573H63.8036C63.8036 1.66454 63.8124 1.80763 63.8811 1.94511C63.919 2.02092 63.9817 2.10782 64.0819 2.17465C64.1853 2.24356 64.2986 2.271 64.4026 2.271V1.271ZM64.8036 1.573C64.8036 1.53254 64.8113 1.57663 64.7756 1.64811C64.7542 1.69092 64.7121 1.75307 64.6366 1.8034C64.558 1.85582 64.4736 1.875 64.4026 1.875V0.875C64.2986 0.875 64.1853 0.902435 64.0819 0.97135C63.9817 1.03818 63.919 1.12508 63.8811 1.20089C63.8124 1.33837 63.8036 1.48146 63.8036 1.573H64.8036ZM64.4026 1.875C64.5907 1.875 64.8174 1.89393 65.0856 1.93519L65.2376 0.946813C64.9338 0.900074 64.6545 0.875 64.4026 0.875V1.875ZM65.126 1.93973C65.4516 1.96298 65.8943 1.974 66.4486 1.974V0.973999C65.9029 0.973999 65.4876 0.963013 65.1972 0.94227L65.126 1.93973ZM66.4486 1.974C67.7075 1.974 68.762 1.95193 69.6099 1.90731L69.5573 0.908691C68.7332 0.952064 67.6977 0.973999 66.4486 0.973999V1.974ZM69.6333 1.90552C69.8301 1.88584 70.0977 1.875 70.4416 1.875V0.875C70.0815 0.875 69.7771 0.886158 69.5338 0.910481L69.6333 1.90552ZM70.4416 1.875C70.3706 1.875 70.2862 1.85582 70.2076 1.8034C70.1321 1.75307 70.09 1.69092 70.0686 1.64811C70.0329 1.57663 70.0406 1.53254 70.0406 1.573H71.0406C71.0406 1.48146 71.0318 1.33837 70.9631 1.20089C70.9252 1.12508 70.8625 1.03818 70.7623 0.97135C70.6589 0.902435 70.5456 0.875 70.4416 0.875V1.875ZM70.0406 1.573C70.0406 1.61346 70.0329 1.56937 70.0686 1.49789C70.09 1.45508 70.1321 1.39293 70.2076 1.3426C70.2862 1.29018 70.3706 1.271 70.4416 1.271V2.271C70.5456 2.271 70.6589 2.24356 70.7623 2.17465C70.8625 2.10782 70.9252 2.02092 70.9631 1.94511C71.0318 1.80763 71.0406 1.66454 71.0406 1.573H70.0406ZM70.4416 1.271C70.1024 1.271 69.767 1.31659 69.5005 1.46888L69.9967 2.33712C70.0382 2.31341 70.1648 2.271 70.4416 2.271V1.271ZM69.525 1.45579C69.1652 1.63567 69.0506 1.98712 69.0506 2.299H70.0506C70.0506 2.25232 70.0588 2.25213 70.0473 2.27511C70.0411 2.28756 70.0308 2.30316 70.0155 2.31843C70.0003 2.33369 69.9847 2.34399 69.9722 2.35021L69.525 1.45579ZM69.0506 2.299C69.0506 2.58332 69.155 2.95134 69.3044 3.3552C69.4606 3.77761 69.6909 4.30221 69.9912 4.92515L70.892 4.49085C70.5983 3.88178 70.3831 3.38889 70.2423 3.0083C70.0947 2.60916 70.0506 2.38868 70.0506 2.299H69.0506ZM69.9902 4.92301L76.2932 18.156L77.196 17.726L70.893 4.49299L69.9902 4.92301ZM76.3203 17.6766L74.9013 19.9536L75.7499 20.4824L77.1689 18.2054L76.3203 17.6766ZM75.794 20.3929L81.14 6.07085L80.2032 5.72115L74.8572 20.0431L75.794 20.3929ZM81.1398 6.07156C81.4186 5.32811 81.5676 4.62951 81.5676 3.982H80.5676C80.5676 4.47849 80.4526 5.05589 80.2034 5.72044L81.1398 6.07156ZM81.5676 3.982C81.5676 3.21369 81.3678 2.54417 80.9133 2.03282L80.1659 2.69718C80.4154 2.97783 80.5676 3.38631 80.5676 3.982H81.5676ZM80.9237 2.04491C80.4875 1.5215 79.8886 1.271 79.1866 1.271V2.271C79.6286 2.271 79.9317 2.41649 80.1555 2.68509L80.9237 2.04491ZM79.1866 1.271C79.2576 1.271 79.342 1.29018 79.4206 1.3426C79.4961 1.39293 79.5382 1.45508 79.5596 1.49789C79.5953 1.56937 79.5876 1.61346 79.5876 1.573H78.5876C78.5876 1.66454 78.5964 1.80762 78.6651 1.9451C78.703 2.02092 78.7657 2.10782 78.8659 2.17465C78.9693 2.24356 79.0826 2.271 79.1866 2.271V1.271ZM79.5876 1.573C79.5876 1.53254 79.5953 1.57662 79.5596 1.6481C79.5382 1.69092 79.4961 1.75307 79.4206 1.8034C79.342 1.85581 79.2576 1.875 79.1866 1.875V0.875C79.0826 0.875 78.9693 0.902435 78.8659 0.971351C78.7657 1.03818 78.703 1.12508 78.6651 1.20089C78.5964 1.33837 78.5876 1.48146 78.5876 1.573H79.5876ZM79.1757 1.87488L80.6937 1.90788L80.7155 0.908118L79.1975 0.875118L79.1757 1.87488ZM80.6769 1.90723C81.4763 1.95164 82.2117 1.974 82.8826 1.974V0.973999C82.2335 0.973999 81.5169 0.952354 80.7323 0.908769L80.6769 1.90723ZM82.8826 1.974C83.3385 1.974 83.8578 1.95123 84.4389 1.90653L84.3622 0.909472C83.7994 0.952767 83.3066 0.973999 82.8826 0.973999V1.974ZM84.4122 1.90786L85.8312 1.87486L85.808 0.875135L84.389 0.908135L84.4122 1.90786ZM73.1851 5.74604C73.6722 4.48395 73.9446 3.46448 73.9446 2.728H72.9446C72.9446 3.26752 72.733 4.14005 72.2521 5.38596L73.1851 5.74604ZM73.9446 2.728C73.9446 2.3486 73.8644 1.97073 73.617 1.68378C73.3574 1.38263 72.9926 1.271 72.6196 1.271V2.271C72.7966 2.271 72.8442 2.31886 72.8596 2.33672C72.8873 2.36877 72.9446 2.46939 72.9446 2.728H73.9446ZM72.6196 1.271C72.6906 1.271 72.775 1.29018 72.8536 1.3426C72.9291 1.39293 72.9711 1.45507 72.9926 1.49789C73.0283 1.56937 73.0206 1.61346 73.0206 1.573H72.0206C72.0206 1.66454 72.0294 1.80763 72.0981 1.94511C72.136 2.02092 72.1987 2.10782 72.2989 2.17465C72.4023 2.24356 72.5156 2.271 72.6196 2.271V1.271ZM73.0206 1.573C73.0206 1.53254 73.0283 1.57663 72.9926 1.64811C72.9711 1.69092 72.9291 1.75307 72.8536 1.8034C72.775 1.85582 72.6906 1.875 72.6196 1.875V0.875C72.5156 0.875 72.4023 0.902434 72.2989 0.971349C72.1987 1.03818 72.136 1.12508 72.0981 1.20089C72.0294 1.33837 72.0206 1.48146 72.0206 1.573H73.0206ZM72.6196 1.875C72.7541 1.875 72.9045 1.89184 73.0721 1.92909L73.2891 0.952905C73.0607 0.902163 72.8371 0.875 72.6196 0.875V1.875ZM73.1308 1.93852C73.381 1.96354 73.937 1.974 74.7646 1.974V0.973999C73.9202 0.973999 73.4202 0.962461 73.2303 0.94348L73.1308 1.93852ZM74.7646 1.974C75.1568 1.974 75.6225 1.95099 76.1591 1.90627L76.0761 0.909727C75.5567 0.953007 75.1204 0.973999 74.7646 0.973999V1.974ZM76.1311 1.90782L77.3521 1.87482L77.3251 0.875183L76.1041 0.908182L76.1311 1.90782ZM77.3386 1.875C77.2083 1.875 77.0931 1.82014 77.0139 1.74093C76.947 1.67401 76.9217 1.60659 76.9138 1.58262C76.8987 1.53745 76.9046 1.52159 76.9046 1.573H77.9046C77.9046 1.49241 77.8995 1.37755 77.8624 1.26638C77.8297 1.16805 77.6927 0.875 77.3386 0.875V1.875ZM76.9046 1.573C76.9046 1.62441 76.8987 1.60855 76.9138 1.56338C76.9217 1.53941 76.947 1.47199 77.0139 1.40507C77.0931 1.32586 77.2083 1.271 77.3386 1.271V2.271C77.6927 2.271 77.8297 1.97795 77.8624 1.87962C77.8995 1.76845 77.9046 1.65359 77.9046 1.573H76.9046ZM77.3386 1.271C76.4354 1.271 75.6369 1.6751 74.9532 2.40191C74.2789 3.1187 73.7028 4.16086 73.2071 5.49031L74.1441 5.83969C74.6164 4.57314 75.1348 3.6683 75.6815 3.08708C76.2188 2.5159 76.7678 2.271 77.3386 2.271V1.271ZM73.2079 5.48819L71.1619 10.9002L72.0973 11.2538L74.1433 5.84181L73.2079 5.48819ZM72.0433 10.7962L71.4163 9.87225L70.5889 10.4337L71.2159 11.3577L72.0433 10.7962ZM71.4709 10.3282L73.1869 5.74119L72.2503 5.39081L70.5343 9.97781L71.4709 10.3282ZM91.6835 20.812L91.2091 20.9701L91.2127 20.9802L91.6835 20.812ZM92.0795 21.967L92.1089 21.4679L92.0979 21.4672L92.0869 21.4671L92.0795 21.967ZM89.8355 21.934L89.8429 21.4341L89.8354 21.4339L89.8278 21.4341L89.8355 21.934ZM87.6905 21.967L87.6828 21.4671L87.6728 21.4672L87.6628 21.4678L87.6905 21.967ZM87.4265 21.439L87.2583 20.968L87.247 20.9723L87.4265 21.439ZM88.0535 20.812L88.5245 20.9802L88.5279 20.9701L88.0535 20.812ZM88.0535 7.777L87.5827 7.94517L87.5827 7.94517L88.0535 7.777ZM87.4265 7.15L87.217 7.60398L87.2373 7.61335L87.2584 7.62087L87.4265 7.15ZM86.0405 6.556L86.0505 6.056H86.0405V6.556ZM87.6905 6.589L87.7155 6.08962L87.708 6.08925L87.7005 6.0891L87.6905 6.589ZM92.1125 6.589L92.1019 6.08894L92.0888 6.08957L92.1125 6.589ZM93.6635 6.556V6.05589L93.6529 6.05611L93.6635 6.556ZM92.2775 7.15L92.0805 6.69025L92.068 6.69602L92.2775 7.15ZM91.6835 7.843L92.1545 8.01121L92.1579 8.00111L91.6835 7.843ZM91.0185 19.327C91.0185 20.0016 91.0731 20.5619 91.2092 20.9701L92.1579 20.6539C92.0739 20.4021 92.0185 19.9724 92.0185 19.327H91.0185ZM91.2127 20.9802C91.3679 21.4149 91.666 21.7395 92.098 21.9057L92.457 20.9723C92.3171 20.9185 92.2192 20.8251 92.1544 20.6438L91.2127 20.9802ZM92.098 21.9057C92.4753 22.0508 93.016 22.104 93.6635 22.104V21.104C93.0351 21.104 92.6518 21.0472 92.457 20.9723L92.098 21.9057ZM93.6635 22.104C93.5333 22.104 93.4181 22.0491 93.3389 21.9699C93.2719 21.903 93.2467 21.8356 93.2387 21.8116C93.2236 21.7664 93.2295 21.7506 93.2295 21.802H94.2295C94.2295 21.7214 94.2244 21.6066 94.1874 21.4954C94.1546 21.3971 94.0177 21.104 93.6635 21.104V22.104ZM93.2295 21.802C93.2295 21.8534 93.2236 21.8376 93.2387 21.7924C93.2467 21.7684 93.2719 21.701 93.3389 21.6341C93.4181 21.5549 93.5333 21.5 93.6635 21.5V22.5C94.0177 22.5 94.1546 22.2069 94.1874 22.1086C94.2244 21.9974 94.2295 21.8826 94.2295 21.802H93.2295ZM93.6635 21.5C92.9848 21.5 92.4683 21.489 92.1089 21.4679L92.0502 22.4661C92.4388 22.489 92.9783 22.5 93.6635 22.5V21.5ZM92.0869 21.4671L89.8429 21.4341L89.8282 22.4339L92.0722 22.4669L92.0869 21.4671ZM89.8278 21.4341L87.6828 21.4671L87.6982 22.4669L89.8432 22.4339L89.8278 21.4341ZM87.6628 21.4678C87.2805 21.489 86.7412 21.5 86.0405 21.5V22.5C86.7479 22.5 87.3086 22.489 87.7183 22.4662L87.6628 21.4678ZM86.0405 21.5C86.1708 21.5 86.286 21.5549 86.3652 21.6341C86.4321 21.701 86.4574 21.7684 86.4654 21.7924C86.4804 21.8376 86.4745 21.8534 86.4745 21.802H85.4745C85.4745 21.8826 85.4796 21.9974 85.5167 22.1086C85.5495 22.2069 85.6864 22.5 86.0405 22.5V21.5ZM86.4745 21.802C86.4745 21.7506 86.4804 21.7664 86.4654 21.8116C86.4574 21.8356 86.4321 21.903 86.3652 21.9699C86.286 22.0491 86.1708 22.104 86.0405 22.104V21.104C85.6864 21.104 85.5495 21.3971 85.5167 21.4954C85.4796 21.6066 85.4745 21.7214 85.4745 21.802H86.4745ZM86.0405 22.104C86.6881 22.104 87.2288 22.0508 87.606 21.9057L87.247 20.9723C87.0523 21.0472 86.669 21.104 86.0405 21.104V22.104ZM87.5947 21.9099C88.0439 21.7495 88.364 21.4293 88.5244 20.9802L87.5827 20.6438C87.5231 20.8107 87.4252 20.9085 87.2584 20.9681L87.5947 21.9099ZM88.5279 20.9701C88.6639 20.5619 88.7185 20.0016 88.7185 19.327H87.7185C87.7185 19.9724 87.6631 20.4021 87.5792 20.6539L88.5279 20.9701ZM88.7185 19.327V9.229H87.7185V19.327H88.7185ZM88.7185 9.229C88.7185 8.5578 88.6647 8.00171 88.5244 7.60883L87.5827 7.94517C87.6624 8.16829 87.7185 8.5802 87.7185 9.229H88.7185ZM88.5244 7.60883C88.364 7.15965 88.0439 6.83955 87.5947 6.67913L87.2584 7.62087C87.4252 7.68045 87.5231 7.77834 87.5827 7.94517L88.5244 7.60883ZM87.6361 6.69602C87.2462 6.51606 86.6916 6.452 86.0405 6.452V7.452C86.6654 7.452 87.0349 7.51994 87.217 7.60398L87.6361 6.69602ZM86.0405 6.452C86.1708 6.452 86.286 6.50686 86.3652 6.58607C86.4321 6.65299 86.4574 6.72041 86.4654 6.74438C86.4804 6.78955 86.4745 6.80541 86.4745 6.754H85.4745C85.4745 6.83459 85.4796 6.94945 85.5167 7.06061C85.5495 7.15894 85.6864 7.452 86.0405 7.452V6.452ZM86.4745 6.754C86.4745 6.70259 86.4804 6.71844 86.4654 6.76361C86.4574 6.78759 86.4321 6.855 86.3652 6.92193C86.286 7.00113 86.1708 7.056 86.0405 7.056V6.056C85.6864 6.056 85.5495 6.34906 85.5167 6.44739C85.4796 6.55855 85.4745 6.67341 85.4745 6.754H86.4745ZM86.0305 7.0559L87.6805 7.0889L87.7005 6.0891L86.0505 6.0561L86.0305 7.0559ZM87.6656 7.08838C88.5496 7.13258 89.2738 7.155 89.8355 7.155V6.155C89.2973 6.155 88.5915 6.13342 87.7155 6.08962L87.6656 7.08838ZM89.8355 7.155C90.4406 7.155 91.2082 7.13263 92.1363 7.08843L92.0888 6.08957C91.1688 6.13337 90.4185 6.155 89.8355 6.155V7.155ZM92.1232 7.08889L93.6742 7.05589L93.6529 6.05611L92.1019 6.08911L92.1232 7.08889ZM93.6635 7.056C93.5333 7.056 93.4181 7.00113 93.3389 6.92193C93.2719 6.855 93.2467 6.78759 93.2387 6.76361C93.2236 6.71844 93.2295 6.70259 93.2295 6.754H94.2295C94.2295 6.67341 94.2244 6.55855 94.1874 6.44739C94.1546 6.34906 94.0177 6.056 93.6635 6.056V7.056ZM93.2295 6.754C93.2295 6.80541 93.2236 6.78955 93.2387 6.74438C93.2467 6.72041 93.2719 6.65299 93.3389 6.58607C93.4181 6.50686 93.5333 6.452 93.6635 6.452V7.452C94.0177 7.452 94.1546 7.15894 94.1874 7.06061C94.2244 6.94945 94.2295 6.83459 94.2295 6.754H93.2295ZM93.6635 6.452C93.0271 6.452 92.4831 6.51792 92.0806 6.69043L92.4745 7.60957C92.688 7.51807 93.068 7.452 93.6635 7.452V6.452ZM92.068 6.69602C91.6429 6.89223 91.3578 7.23908 91.2092 7.68489L92.1579 8.00111C92.2293 7.78692 92.3402 7.67177 92.4871 7.60398L92.068 6.69602ZM91.2127 7.67483C91.0724 8.06771 91.0185 8.6238 91.0185 9.295H92.0185C92.0185 8.6462 92.0747 8.23429 92.1544 8.01117L91.2127 7.67483ZM91.0185 9.295V19.327H92.0185V9.295H91.0185ZM101.014 20.746L100.523 20.8441L100.527 20.8639L100.533 20.8834L101.014 20.746ZM101.476 21.406L101.219 21.8347L101.227 21.84L101.236 21.8449L101.476 21.406ZM101.047 21.967L101.076 21.4679L101.066 21.4673L101.055 21.4671L101.047 21.967ZM99.1328 21.934L99.1414 21.4341L99.1325 21.4339L99.1237 21.4341L99.1328 21.934ZM97.3178 21.967L97.3087 21.4671L97.2976 21.4673L97.2866 21.468L97.3178 21.967ZM96.9548 21.439L96.7625 20.9775L96.7551 20.9805L96.7479 20.9838L96.9548 21.439ZM97.4828 20.812L97.9636 20.9494L97.9659 20.9408L97.4828 20.812ZM96.9878 7.15L96.7305 7.57875L96.7549 7.5934L96.7809 7.60518L96.9878 7.15ZM95.9318 6.556L95.9395 6.056H95.9318V6.556ZM98.0768 6.589L98.0691 7.08894L98.0767 7.08906L98.0842 7.08894L98.0768 6.589ZM100.288 6.556V6.05594L100.28 6.05605L100.288 6.556ZM100.783 6.688L100.383 6.988L100.426 7.04514L100.483 7.088L100.783 6.688ZM99.6608 10.681L99.2402 10.4106L99.0154 10.7602L99.3181 11.0451L99.6608 10.681ZM102.895 7.282L103.159 7.70649L103.165 7.70285L102.895 7.282ZM110.65 7.48L110.322 7.85733L110.326 7.86138L110.65 7.48ZM112.267 20.812L111.776 20.9101L111.778 20.9168L112.267 20.812ZM112.168 21.967L112.203 21.4683L112.19 21.4673L112.177 21.4671L112.168 21.967ZM110.452 21.934L110.461 21.4341L110.452 21.4339L110.443 21.4341L110.452 21.934ZM108.472 21.967L108.463 21.4671L108.451 21.4673L108.439 21.4681L108.472 21.967ZM108.274 21.406L108.034 20.9671L108.034 20.9671L108.274 21.406ZM108.769 20.746L109.25 20.8834L109.252 20.8748L108.769 20.746ZM107.977 8.437L107.577 8.737L107.581 8.74325L107.586 8.74935L107.977 8.437ZM102.664 8.173L102.377 7.76335L102.372 7.76684L102.664 8.173ZM100.222 11.209L99.8791 11.5731L100.35 12.0164L100.66 11.4489L100.222 11.209ZM100.415 19.261C100.415 19.9289 100.447 20.4641 100.523 20.8441L101.504 20.6479C101.448 20.3679 101.415 19.9131 101.415 19.261H100.415ZM100.533 20.8834C100.647 21.2816 100.864 21.6223 101.219 21.8347L101.733 20.9773C101.647 20.9257 101.557 20.8264 101.495 20.6086L100.533 20.8834ZM101.236 21.8449C101.588 22.0368 102.052 22.104 102.565 22.104V21.104C102.11 21.104 101.847 21.0392 101.715 20.9671L101.236 21.8449ZM102.565 22.104C102.434 22.104 102.319 22.0491 102.24 21.9699C102.173 21.903 102.148 21.8356 102.14 21.8116C102.125 21.7664 102.131 21.7506 102.131 21.802H103.131C103.131 21.7214 103.126 21.6066 103.089 21.4954C103.056 21.3971 102.919 21.104 102.565 21.104V22.104ZM102.131 21.802C102.131 21.8534 102.125 21.8376 102.14 21.7924C102.148 21.7684 102.173 21.701 102.24 21.6341C102.319 21.5549 102.434 21.5 102.565 21.5V22.5C102.919 22.5 103.056 22.2069 103.089 22.1086C103.126 21.9974 103.131 21.8826 103.131 21.802H102.131ZM102.565 21.5C101.931 21.5 101.436 21.489 101.076 21.4679L101.017 22.4661C101.406 22.489 101.923 22.5 102.565 22.5V21.5ZM101.055 21.4671L99.1414 21.4341L99.1242 22.4339L101.038 22.4669L101.055 21.4671ZM99.1237 21.4341L97.3087 21.4671L97.3269 22.4669L99.1419 22.4339L99.1237 21.4341ZM97.2866 21.468C96.9501 21.489 96.4672 21.5 95.8328 21.5V22.5C96.4743 22.5 96.9815 22.489 97.349 22.466L97.2866 21.468ZM95.8328 21.5C95.9631 21.5 96.0782 21.5549 96.1575 21.6341C96.2244 21.701 96.2496 21.7684 96.2576 21.7924C96.2727 21.8376 96.2668 21.8534 96.2668 21.802H95.2668C95.2668 21.8826 95.2719 21.9974 95.3089 22.1086C95.3417 22.2069 95.4786 22.5 95.8328 22.5V21.5ZM96.2668 21.802C96.2668 21.7506 96.2727 21.7664 96.2576 21.8116C96.2496 21.8356 96.2244 21.903 96.1575 21.9699C96.0782 22.0491 95.9631 22.104 95.8328 22.104V21.104C95.4786 21.104 95.3417 21.3971 95.3089 21.4954C95.2719 21.6066 95.2668 21.7214 95.2668 21.802H96.2668ZM95.8328 22.104C96.3571 22.104 96.8194 22.0498 97.1617 21.8942L96.7479 20.9838C96.6061 21.0482 96.3204 21.104 95.8328 21.104V22.104ZM97.1471 21.9005C97.5696 21.7245 97.8394 21.3837 97.9635 20.9494L97.002 20.6746C96.9501 20.8563 96.8679 20.9335 96.7625 20.9775L97.1471 21.9005ZM97.9659 20.9408C98.0712 20.5461 98.1148 19.9981 98.1148 19.327H97.1148C97.1148 19.9759 97.0704 20.4179 96.9997 20.6832L97.9659 20.9408ZM98.1148 19.327V9.229H97.1148V19.327H98.1148ZM98.1148 9.229C98.1148 8.56082 98.0717 8.01825 97.9635 7.63964L97.002 7.91436C97.0698 8.15175 97.1148 8.57718 97.1148 9.229H98.1148ZM97.9635 7.63964C97.8443 7.2224 97.5975 6.87792 97.1947 6.69482L96.7809 7.60518C96.862 7.64207 96.9452 7.7156 97.002 7.91436L97.9635 7.63964ZM97.245 6.72125C96.9047 6.51709 96.4388 6.452 95.9318 6.452V7.452C96.3928 7.452 96.6308 7.51891 96.7305 7.57875L97.245 6.72125ZM95.9318 6.452C96.0028 6.452 96.0872 6.47118 96.1658 6.5236C96.2413 6.57393 96.2833 6.63608 96.3047 6.67889C96.3405 6.75037 96.3328 6.79446 96.3328 6.754H95.3328C95.3328 6.84554 95.3416 6.98863 95.4103 7.12611C95.4482 7.20192 95.5109 7.28882 95.6111 7.35565C95.7145 7.42456 95.8278 7.452 95.9318 7.452V6.452ZM96.3328 6.754C96.3328 6.71354 96.3405 6.75762 96.3047 6.82911C96.2833 6.87192 96.2413 6.93407 96.1658 6.9844C96.0872 7.03681 96.0028 7.056 95.9318 7.056V6.056C95.8278 6.056 95.7145 6.08343 95.6111 6.15235C95.5109 6.21918 95.4482 6.30608 95.4103 6.38189C95.3416 6.51937 95.3328 6.66246 95.3328 6.754H96.3328ZM95.9241 7.05594L98.0691 7.08894L98.0845 6.08906L95.9395 6.05606L95.9241 7.05594ZM98.0842 7.08894L100.295 7.05594L100.28 6.05605L98.0693 6.08906L98.0842 7.08894ZM100.288 7.056C100.34 7.056 100.383 7.05821 100.416 7.06164C100.45 7.06511 100.471 7.06942 100.481 7.07212C100.491 7.07497 100.484 7.07433 100.467 7.06437C100.448 7.05394 100.415 7.03078 100.383 6.988L101.183 6.388C101.054 6.21665 100.873 6.14173 100.738 6.10588C100.598 6.06833 100.442 6.056 100.288 6.056V7.056ZM100.483 7.088C100.44 7.05591 100.417 7.02239 100.406 7.00413C100.396 6.9867 100.396 6.97938 100.399 6.99008C100.401 7.0002 100.406 7.02074 100.409 7.05458C100.413 7.088 100.415 7.13042 100.415 7.183H101.415C101.415 7.02842 101.402 6.87324 101.365 6.73242C101.329 6.598 101.254 6.41651 101.083 6.288L100.483 7.088ZM100.415 7.183V19.261H101.415V7.183H100.415ZM100.081 10.9514C101.044 9.45392 102.073 8.38254 103.159 7.70645L102.63 6.85755C101.384 7.63346 100.258 8.82808 99.2402 10.4106L100.081 10.9514ZM103.165 7.70285C104.246 7.00908 105.461 6.66 106.822 6.66V5.66C105.279 5.66 103.875 6.05892 102.625 6.86115L103.165 7.70285ZM106.822 6.66C108.26 6.66 109.414 7.06806 110.322 7.8573L110.978 7.1027C109.861 6.13194 108.463 5.66 106.822 5.66V6.66ZM110.326 7.86138C111.174 8.58009 111.668 9.88382 111.668 11.935H112.668C112.668 9.76217 112.149 8.09591 110.973 7.09862L110.326 7.86138ZM111.668 11.935V19.327H112.668V11.935H111.668ZM111.668 19.327C111.668 19.9949 111.7 20.5301 111.776 20.9101L112.757 20.7139C112.701 20.4339 112.668 19.9791 112.668 19.327H111.668ZM111.778 20.9168C111.858 21.2894 112.026 21.6514 112.365 21.863L112.895 21.015C112.881 21.0066 112.808 20.9506 112.756 20.7072L111.778 20.9168ZM112.365 21.863C112.661 22.0484 113.052 22.104 113.455 22.104V21.104C113.11 21.104 112.95 21.0496 112.895 21.015L112.365 21.863ZM113.455 22.104C113.325 22.104 113.209 22.0491 113.13 21.9699C113.063 21.903 113.038 21.8356 113.03 21.8116C113.015 21.7664 113.021 21.7506 113.021 21.802H114.021C114.021 21.7214 114.016 21.6066 113.979 21.4954C113.946 21.3971 113.809 21.104 113.455 21.104V22.104ZM113.021 21.802C113.021 21.8534 113.015 21.8376 113.03 21.7924C113.038 21.7684 113.063 21.701 113.13 21.6341C113.209 21.5549 113.325 21.5 113.455 21.5V22.5C113.809 22.5 113.946 22.2069 113.979 22.1086C114.016 21.9974 114.021 21.8826 114.021 21.802H113.021ZM113.455 21.5C112.909 21.5 112.494 21.489 112.203 21.4683L112.132 22.4657C112.458 22.489 112.901 22.5 113.455 22.5V21.5ZM112.177 21.4671L110.461 21.4341L110.442 22.4339L112.158 22.4669L112.177 21.4671ZM110.443 21.4341L108.463 21.4671L108.48 22.4669L110.46 22.4339L110.443 21.4341ZM108.439 21.4681C108.124 21.489 107.697 21.5 107.152 21.5V22.5C107.707 22.5 108.159 22.489 108.505 22.4659L108.439 21.4681ZM107.152 21.5C107.282 21.5 107.397 21.5549 107.476 21.6341C107.543 21.701 107.569 21.7684 107.577 21.7924C107.592 21.8376 107.586 21.8534 107.586 21.802H106.586C106.586 21.8826 106.591 21.9974 106.628 22.1086C106.661 22.2069 106.798 22.5 107.152 22.5V21.5ZM107.586 21.802C107.586 21.7506 107.592 21.7664 107.577 21.8116C107.569 21.8356 107.543 21.903 107.476 21.9699C107.397 22.0491 107.282 22.104 107.152 22.104V21.104C106.798 21.104 106.661 21.3971 106.628 21.4954C106.591 21.6066 106.586 21.7214 106.586 21.802H107.586ZM107.152 22.104C107.682 22.104 108.159 22.0381 108.513 21.8449L108.034 20.9671C107.904 21.0379 107.633 21.104 107.152 21.104V22.104ZM108.513 21.8449C108.892 21.6384 109.131 21.2975 109.25 20.8834L108.288 20.6086C108.23 20.8105 108.14 20.9096 108.034 20.9671L108.513 21.8449ZM109.252 20.8748C109.357 20.4801 109.401 19.9321 109.401 19.261H108.401C108.401 19.9099 108.356 20.3519 108.286 20.6172L109.252 20.8748ZM109.401 19.261V12.694H108.401V19.261H109.401ZM109.401 12.694C109.401 10.615 109.099 9.03934 108.367 8.12465L107.586 8.74935C108.087 9.37466 108.401 10.637 108.401 12.694H109.401ZM108.377 8.137C107.681 7.20964 106.703 6.749 105.502 6.749V7.749C106.413 7.749 107.084 8.08036 107.577 8.737L108.377 8.137ZM105.502 6.749C104.381 6.749 103.336 7.09238 102.377 7.76338L102.951 8.58261C103.752 8.02162 104.599 7.749 105.502 7.749V6.749ZM102.372 7.76684C101.43 8.4433 100.572 9.52637 99.7831 10.9691L100.66 11.4489C101.411 10.0756 102.182 9.1347 102.955 8.57916L102.372 7.76684ZM100.564 10.8449L100.003 10.3169L99.3181 11.0451L99.8791 11.5731L100.564 10.8449ZM119.387 21.307L119.138 21.7403L119.146 21.7451L119.387 21.307ZM116.417 18.37L116.853 18.1245L116.853 18.1245L116.417 18.37ZM116.549 10.087L116.124 9.82331L116.123 9.82537L116.549 10.087ZM119.882 7.183L120.092 7.63701L120.098 7.6343L119.882 7.183ZM127.703 6.424L127.605 6.91429L127.608 6.91474L127.703 6.424ZM129.947 7.183L129.704 7.62008L129.727 7.6325L129.75 7.64257L129.947 7.183ZM130.211 7.414L129.726 7.53527L129.74 7.58852L129.764 7.63761L130.211 7.414ZM130.31 7.909L130.81 7.88244L130.809 7.87307L130.808 7.86373L130.31 7.909ZM130.475 11.011H130.975V10.9977L130.975 10.9844L130.475 11.011ZM130.277 11.143V11.643H130.319L130.359 11.6362L130.277 11.143ZM130.079 11.044L130.554 10.8859L130.536 10.8319L130.506 10.7833L130.079 11.044ZM120.476 8.767L120.07 8.47501L120.067 8.47979L120.476 8.767ZM120.674 19.558L120.27 19.8528L120.27 19.8528L120.674 19.558ZM126.713 21.373L126.916 21.83L126.927 21.8249L126.713 21.373ZM127.538 20.317L127.058 20.177L127.056 20.1839L127.054 20.1908L127.538 20.317ZM127.637 16.654L127.167 16.8249L127.17 16.8323L127.173 16.8397L127.637 16.654ZM127.076 16.192L126.929 16.6699L126.946 16.6752L126.964 16.6792L127.076 16.192ZM125.426 15.631L125.01 15.3536L124.993 15.3795L124.979 15.4074L125.426 15.631ZM125.558 15.532L125.597 15.0335L125.578 15.032H125.558V15.532ZM131.663 15.598V15.098H131.654L131.645 15.0983L131.663 15.598ZM131.762 15.697L131.288 15.8551L131.325 15.9671L131.409 16.0506L131.762 15.697ZM131.663 16.06L131.63 16.5589L131.647 16.56H131.663V16.06ZM130.97 16.159L131.248 16.575L131.248 16.575L130.97 16.159ZM130.706 16.72L131.2 16.8022L131.2 16.796L130.706 16.72ZM130.706 20.251L130.209 20.3062L130.211 20.3198L130.213 20.3332L130.706 20.251ZM130.739 21.34L130.963 21.7872L131.035 21.7509L131.093 21.6936L130.739 21.34ZM130.409 21.472L130.234 21.0038L130.225 21.0071L130.217 21.0107L130.409 21.472ZM124.007 21.896C122.317 21.896 120.863 21.5479 119.628 20.8689L119.146 21.7451C120.552 22.5181 122.177 22.896 124.007 22.896V21.896ZM119.637 20.8738C118.41 20.1669 117.487 19.2503 116.853 18.1245L115.982 18.6155C116.711 19.9097 117.768 20.9511 119.138 21.7402L119.637 20.8738ZM116.853 18.1245C116.212 16.9867 115.894 15.7949 115.894 14.542H114.894C114.894 15.9731 115.259 17.3333 115.982 18.6155L116.853 18.1245ZM115.894 14.542C115.894 12.9028 116.261 11.5116 116.975 10.3486L116.123 9.82537C115.297 11.1704 114.894 12.7492 114.894 14.542H115.894ZM116.974 10.3507C117.712 9.16198 118.746 8.25808 120.092 7.63698L119.673 6.72902C118.158 7.42792 116.971 8.46002 116.124 9.82332L116.974 10.3507ZM120.098 7.6343C121.447 6.99068 123.054 6.66 124.931 6.66V5.66C122.937 5.66 121.178 6.01132 119.667 6.7317L120.098 7.6343ZM124.931 6.66C125.869 6.66 126.76 6.74523 127.605 6.91429L127.801 5.93371C126.887 5.75077 125.93 5.66 124.931 5.66V6.66ZM127.608 6.91474C128.475 7.08399 129.169 7.32278 129.704 7.62008L130.19 6.74592C129.537 6.38322 128.736 6.11601 127.799 5.93325L127.608 6.91474ZM129.75 7.64257C129.798 7.66307 129.808 7.67396 129.8 7.66654C129.789 7.65723 129.746 7.61527 129.726 7.53527L130.696 7.29273C130.614 6.96333 130.327 6.80185 130.144 6.72343L129.75 7.64257ZM129.764 7.63761C129.757 7.62352 129.766 7.63672 129.779 7.70181C129.791 7.76108 129.802 7.84395 129.812 7.95427L130.808 7.86373C130.787 7.62486 130.749 7.37228 130.659 7.19039L129.764 7.63761ZM129.811 7.93556L129.976 11.0376L130.975 10.9844L130.81 7.88244L129.811 7.93556ZM129.975 11.011C129.975 10.9396 129.994 10.8654 130.034 10.7991C130.072 10.7362 130.118 10.698 130.148 10.6775C130.201 10.6422 130.233 10.6435 130.195 10.6498L130.359 11.6362C130.454 11.6205 130.584 11.5888 130.703 11.5095C130.843 11.4163 130.975 11.2465 130.975 11.011H129.975ZM130.277 10.643C130.265 10.643 130.307 10.64 130.369 10.671C130.403 10.688 130.442 10.7148 130.478 10.7551C130.514 10.7959 130.539 10.8414 130.554 10.8859L129.605 11.2021C129.732 11.5832 130.098 11.643 130.277 11.643V10.643ZM130.506 10.7833C128.765 7.93527 126.661 6.386 124.172 6.386V7.386C126.171 7.386 128.005 8.60873 129.653 11.3047L130.506 10.7833ZM124.172 6.386C122.452 6.386 121.068 7.08869 120.07 8.47503L120.882 9.05896C121.689 7.93731 122.769 7.386 124.172 7.386V6.386ZM120.067 8.47979C119.105 9.85076 118.656 11.7494 118.656 14.113H119.656C119.656 11.8566 120.088 10.1912 120.886 9.05421L120.067 8.47979ZM118.656 14.113C118.656 16.4305 119.179 18.3583 120.27 19.8528L121.078 19.2632C120.145 17.9857 119.656 16.2835 119.656 14.113H118.656ZM120.27 19.8528C121.378 21.3697 122.904 22.137 124.799 22.137V21.137C123.219 21.137 121.995 20.5183 121.078 19.2632L120.27 19.8528ZM124.799 22.137C125.692 22.137 126.419 22.0509 126.916 21.8299L126.51 20.9161C126.215 21.0471 125.667 21.137 124.799 21.137V22.137ZM126.927 21.8249C127.497 21.5548 127.858 21.0713 128.022 20.4432L127.054 20.1908C126.954 20.5747 126.765 20.7952 126.499 20.9211L126.927 21.8249ZM128.018 20.457C128.193 19.8574 128.269 18.9729 128.269 17.842H127.269C127.269 18.9551 127.191 19.7206 127.058 20.177L128.018 20.457ZM128.269 17.842C128.269 17.2715 128.229 16.7871 128.102 16.4683L127.173 16.8397C127.222 16.9609 127.269 17.2685 127.269 17.842H128.269ZM128.107 16.4831C127.952 16.0575 127.613 15.8026 127.189 15.7048L126.964 16.6792C127.112 16.7134 127.146 16.7665 127.167 16.8249L128.107 16.4831ZM127.223 15.7141C126.859 15.6019 126.296 15.56 125.591 15.56V16.56C126.295 16.56 126.722 16.6061 126.929 16.6699L127.223 15.7141ZM125.591 15.56C125.613 15.56 125.656 15.5637 125.708 15.5866C125.762 15.6108 125.809 15.6489 125.843 15.694C125.903 15.7747 125.893 15.8359 125.893 15.796H124.893C124.893 15.9321 124.916 16.1253 125.043 16.294C125.19 16.4897 125.403 16.56 125.591 16.56V15.56ZM125.893 15.796C125.893 15.7823 125.896 15.8096 125.874 15.8546L124.979 15.4074C124.913 15.5404 124.893 15.6777 124.893 15.796H125.893ZM125.842 15.9083C125.846 15.9035 125.831 15.9278 125.792 15.9567C125.75 15.9887 125.669 16.032 125.558 16.032V15.032C125.249 15.032 125.074 15.2574 125.01 15.3536L125.842 15.9083ZM125.52 16.0305C126.677 16.1195 127.845 16.164 129.023 16.164V15.164C127.87 15.164 126.728 15.1205 125.597 15.0335L125.52 16.0305ZM129.023 16.164C129.561 16.164 130.449 16.1417 131.681 16.0977L131.645 15.0983C130.414 15.1423 129.542 15.164 129.023 15.164V16.164ZM131.663 16.098C131.544 16.098 131.438 16.0473 131.367 15.9763C131.309 15.9176 131.29 15.8626 131.288 15.8551L132.237 15.5389C132.193 15.4076 132.039 15.098 131.663 15.098V16.098ZM131.409 16.0506C131.398 16.0401 131.328 15.9644 131.328 15.829H132.328C132.328 15.6056 132.214 15.4419 132.116 15.3434L131.409 16.0506ZM131.328 15.829C131.328 15.8616 131.32 15.7962 131.38 15.7116C131.414 15.6637 131.463 15.6207 131.524 15.5925C131.582 15.5654 131.633 15.56 131.663 15.56V16.56C131.85 16.56 132.056 16.4855 132.194 16.2929C132.309 16.1313 132.328 15.9504 132.328 15.829H131.328ZM131.697 15.5611C131.355 15.5383 130.974 15.5557 130.693 15.743L131.248 16.575C131.229 16.5873 131.24 16.5737 131.313 16.5632C131.383 16.5532 131.487 16.5493 131.63 16.5589L131.697 15.5611ZM130.693 15.743C130.378 15.9529 130.261 16.3244 130.212 16.644L131.2 16.796C131.218 16.683 131.24 16.6148 131.258 16.5781C131.274 16.5426 131.277 16.5554 131.248 16.575L130.693 15.743ZM130.213 16.6378C130.161 16.948 130.14 17.4709 130.14 18.172H131.14C131.14 17.4651 131.163 17.02 131.199 16.8022L130.213 16.6378ZM130.14 18.172C130.14 19.1613 130.162 19.8796 130.209 20.3062L131.203 20.1958C131.163 19.8304 131.14 19.1627 131.14 18.172H130.14ZM130.213 20.3332C130.28 20.7318 130.305 20.9687 130.305 21.076H131.305C131.305 20.8753 131.265 20.5622 131.199 20.1688L130.213 20.3332ZM130.305 21.076C130.305 21.1179 130.301 21.1289 130.304 21.1197C130.305 21.1141 130.31 21.0977 130.321 21.0751C130.332 21.0523 130.352 21.0198 130.386 20.9864L131.093 21.6936C131.202 21.5846 131.25 21.4564 131.274 21.3623C131.298 21.2651 131.305 21.1661 131.305 21.076H130.305ZM130.516 20.8928C130.517 20.8919 130.513 20.8944 130.497 20.9011C130.483 20.9072 130.463 20.9152 130.438 20.9253C130.388 20.9454 130.32 20.9715 130.234 21.0038L130.585 21.9402C130.752 21.8773 130.89 21.8235 130.963 21.7872L130.516 20.8928ZM130.217 21.0107C128.833 21.5888 126.777 21.896 124.007 21.896V22.896C126.825 22.896 129.037 22.5872 130.602 21.9333L130.217 21.0107Z" fill="white"/>
</svg>
